<svg width="357" height="300" viewBox="0 0 357 300" fill="none" xmlns="http://www.w3.org/2000/svg">
<rect x="197.676" y="23.6216" width="156.541" height="274.378" rx="30" fill="#FEFEFE" stroke="url(#paint0_linear_616_165)" stroke-width="4"/>
<path d="M245.676 34.5946C238.78 33.9089 236.087 31.8007 234.595 23.2433H317.027C315.765 30.9047 313.306 33.6072 304.865 34.5946H245.676Z" fill="#EBEBEB"/>
<rect x="2" y="23.6216" width="156.541" height="274.378" rx="30" fill="#FEFEFE" stroke="url(#paint1_linear_616_165)" stroke-width="4"/>
<circle cx="276.216" cy="15.1351" r="15.1351" fill="#DE3E3E"/>
<path d="M50 34.5946C43.1045 33.9089 40.4114 31.8007 38.9189 23.2433H121.351C120.09 30.9047 117.631 33.6072 109.189 34.5946H50Z" fill="#EBEBEB"/>
<circle cx="80" cy="15.1351" r="15.1351" fill="#21A362"/>
<path d="M85.7658 10.8108L77.8379 18.7387L74.2343 15.1351" stroke="white" stroke-width="2" stroke-linecap="round" stroke-linejoin="round"/>
<path d="M280.541 10.8108L271.892 19.4594" stroke="white" stroke-width="2" stroke-linecap="round" stroke-linejoin="round"/>
<path d="M271.892 10.8108L280.541 19.4594" stroke="white" stroke-width="2" stroke-linecap="round" stroke-linejoin="round"/>
<rect x="21" y="79" width="117.297" height="21.6216" rx="2" fill="#21A362"/>
<path d="M65.3142 88.9195H64.5173C64.4946 88.7888 64.4527 88.673 64.3916 88.5722C64.3305 88.4699 64.2545 88.3832 64.1636 88.3122C64.0727 88.2412 63.969 88.1879 63.8525 88.1524C63.7375 88.1155 63.6132 88.097 63.4796 88.097C63.2424 88.097 63.0322 88.1567 62.849 88.276C62.6657 88.3939 62.5223 88.5672 62.4186 88.7959C62.3149 89.0231 62.263 89.3008 62.263 89.629C62.263 89.9628 62.3149 90.244 62.4186 90.4727C62.5237 90.7 62.6671 90.8719 62.849 90.9883C63.0322 91.1034 63.2417 91.1609 63.4775 91.1609C63.6082 91.1609 63.7304 91.1439 63.844 91.1098C63.9591 91.0743 64.062 91.0224 64.1529 90.9543C64.2453 90.8861 64.3227 90.8023 64.3852 90.7028C64.4491 90.6034 64.4931 90.4898 64.5173 90.3619L65.3142 90.3662C65.2843 90.5736 65.2197 90.7682 65.1203 90.95C65.0223 91.1318 64.8937 91.2923 64.7346 91.4315C64.5755 91.5693 64.3894 91.6773 64.1764 91.7554C63.9633 91.8321 63.7268 91.8705 63.4669 91.8705C63.0833 91.8705 62.741 91.7817 62.4399 91.6041C62.1387 91.4266 61.9015 91.1702 61.7282 90.8349C61.5549 90.4997 61.4683 90.0977 61.4683 89.629C61.4683 89.1588 61.5556 88.7568 61.7304 88.423C61.9051 88.0878 62.143 87.8314 62.4441 87.6538C62.7453 87.4763 63.0862 87.3875 63.4669 87.3875C63.7098 87.3875 63.9356 87.4216 64.1444 87.4898C64.3532 87.558 64.5393 87.6581 64.7027 87.7902C64.866 87.9209 65.0002 88.0814 65.1054 88.2717C65.2119 88.4606 65.2815 88.6766 65.3142 88.9195ZM69.9372 89.629C69.9372 90.0991 69.8491 90.5018 69.673 90.8371C69.4983 91.1709 69.2597 91.4266 68.9571 91.6041C68.656 91.7817 68.3143 91.8705 67.9322 91.8705C67.5501 91.8705 67.2078 91.7817 66.9053 91.6041C66.6041 91.4251 66.3655 91.1687 66.1893 90.8349C66.0146 90.4997 65.9273 90.0977 65.9273 89.629C65.9273 89.1588 66.0146 88.7568 66.1893 88.423C66.3655 88.0878 66.6041 87.8314 66.9053 87.6538C67.2078 87.4763 67.5501 87.3875 67.9322 87.3875C68.3143 87.3875 68.656 87.4763 68.9571 87.6538C69.2597 87.8314 69.4983 88.0878 69.673 88.423C69.8491 88.7568 69.9372 89.1588 69.9372 89.629ZM69.1425 89.629C69.1425 89.298 69.0906 89.0189 68.9869 88.7916C68.8847 88.5629 68.7426 88.3903 68.5608 88.2739C68.379 88.156 68.1695 88.097 67.9322 88.097C67.695 88.097 67.4855 88.156 67.3037 88.2739C67.1219 88.3903 66.9791 88.5629 66.8754 88.7916C66.7731 89.0189 66.722 89.298 66.722 89.629C66.722 89.9599 66.7731 90.2398 66.8754 90.4685C66.9791 90.6957 67.1219 90.8683 67.3037 90.9862C67.4855 91.1027 67.695 91.1609 67.9322 91.1609C68.1695 91.1609 68.379 91.1027 68.5608 90.9862C68.7426 90.8683 68.8847 90.6957 68.9869 90.4685C69.0906 90.2398 69.1425 89.9599 69.1425 89.629ZM74.2705 87.4472V91.8108H73.5674L71.5113 88.8385H71.475V91.8108H70.6845V87.4472H71.3919L73.4459 90.4216H73.4843V87.4472H74.2705ZM75.1318 91.8108V87.4472H77.9273V88.1098H75.9223V89.2945H77.7355V89.9571H75.9223V91.8108H75.1318ZM79.4379 87.4472V91.8108H78.6474V87.4472H79.4379ZM80.2939 91.8108V87.4472H81.9303C82.2655 87.4472 82.5468 87.5054 82.774 87.6219C83.0027 87.7383 83.1753 87.9017 83.2918 88.1119C83.4097 88.3207 83.4686 88.5643 83.4686 88.8428C83.4686 89.1226 83.409 89.3655 83.2897 89.5714C83.1718 89.776 82.9978 89.9344 82.7676 90.0466C82.5375 90.1574 82.2549 90.2128 81.9196 90.2128H80.7542V89.5565H81.8131C82.0091 89.5565 82.1696 89.5295 82.2946 89.4756C82.4196 89.4202 82.512 89.3399 82.5716 89.2348C82.6327 89.1283 82.6632 88.9976 82.6632 88.8428C82.6632 88.6879 82.6327 88.5558 82.5716 88.4464C82.5105 88.3356 82.4175 88.2518 82.2925 88.195C82.1675 88.1368 82.0063 88.1077 81.8088 88.1077H81.0844V91.8108H80.2939ZM82.5482 89.8335L83.6284 91.8108H82.7463L81.6853 89.8335H82.5482ZM84.1963 87.4472H85.1636L86.4591 90.6091H86.5102L87.8056 87.4472H88.773V91.8108H88.0144V88.8129H87.974L86.768 91.798H86.2012L84.9953 88.8065H84.9548V91.8108H84.1963V87.4472ZM90.1941 91.8108H89.3504L90.8866 87.4472H91.8625L93.4008 91.8108H92.5571L91.3916 88.342H91.3575L90.1941 91.8108ZM90.2218 90.0999H92.523V90.7348H90.2218V90.0999ZM93.9756 91.8108V87.4472H95.6119C95.9472 87.4472 96.2284 87.5054 96.4557 87.6219C96.6844 87.7383 96.857 87.9017 96.9734 88.1119C97.0913 88.3207 97.1503 88.5643 97.1503 88.8428C97.1503 89.1226 97.0906 89.3655 96.9713 89.5714C96.8534 89.776 96.6794 89.9344 96.4493 90.0466C96.2192 90.1574 95.9365 90.2128 95.6013 90.2128H94.4358V89.5565H95.4947C95.6908 89.5565 95.8513 89.5295 95.9763 89.4756C96.1013 89.4202 96.1936 89.3399 96.2533 89.2348C96.3143 89.1283 96.3449 88.9976 96.3449 88.8428C96.3449 88.6879 96.3143 88.5558 96.2533 88.4464C96.1922 88.3356 96.0991 88.2518 95.9741 88.195C95.8491 88.1368 95.6879 88.1077 95.4905 88.1077H94.766V91.8108H93.9756ZM96.2298 89.8335L97.3101 91.8108H96.428L95.3669 89.8335H96.2298Z" fill="white"/>
<rect x="21" y="113" width="117.297" height="21.6216" rx="2" fill="#DE3E3E"/>
<path d="M65.3142 122.919H64.5173C64.4946 122.789 64.4527 122.673 64.3916 122.572C64.3305 122.47 64.2545 122.383 64.1636 122.312C64.0727 122.241 63.969 122.188 63.8525 122.152C63.7375 122.115 63.6132 122.097 63.4796 122.097C63.2424 122.097 63.0322 122.157 62.849 122.276C62.6657 122.394 62.5223 122.567 62.4186 122.796C62.3149 123.023 62.263 123.301 62.263 123.629C62.263 123.963 62.3149 124.244 62.4186 124.473C62.5237 124.7 62.6671 124.872 62.849 124.988C63.0322 125.103 63.2417 125.161 63.4775 125.161C63.6082 125.161 63.7304 125.144 63.844 125.11C63.9591 125.074 64.062 125.022 64.1529 124.954C64.2453 124.886 64.3227 124.802 64.3852 124.703C64.4491 124.603 64.4931 124.49 64.5173 124.362L65.3142 124.366C65.2843 124.574 65.2197 124.768 65.1203 124.95C65.0223 125.132 64.8937 125.292 64.7346 125.432C64.5755 125.569 64.3894 125.677 64.1764 125.755C63.9633 125.832 63.7268 125.87 63.4669 125.87C63.0833 125.87 62.741 125.782 62.4399 125.604C62.1387 125.427 61.9015 125.17 61.7282 124.835C61.5549 124.5 61.4683 124.098 61.4683 123.629C61.4683 123.159 61.5556 122.757 61.7304 122.423C61.9051 122.088 62.143 121.831 62.4441 121.654C62.7453 121.476 63.0862 121.387 63.4669 121.387C63.7098 121.387 63.9356 121.422 64.1444 121.49C64.3532 121.558 64.5393 121.658 64.7027 121.79C64.866 121.921 65.0002 122.081 65.1054 122.272C65.2119 122.461 65.2815 122.677 65.3142 122.919ZM69.9372 123.629C69.9372 124.099 69.8491 124.502 69.673 124.837C69.4983 125.171 69.2597 125.427 68.9571 125.604C68.656 125.782 68.3143 125.87 67.9322 125.87C67.5501 125.87 67.2078 125.782 66.9053 125.604C66.6041 125.425 66.3655 125.169 66.1893 124.835C66.0146 124.5 65.9273 124.098 65.9273 123.629C65.9273 123.159 66.0146 122.757 66.1893 122.423C66.3655 122.088 66.6041 121.831 66.9053 121.654C67.2078 121.476 67.5501 121.387 67.9322 121.387C68.3143 121.387 68.656 121.476 68.9571 121.654C69.2597 121.831 69.4983 122.088 69.673 122.423C69.8491 122.757 69.9372 123.159 69.9372 123.629ZM69.1425 123.629C69.1425 123.298 69.0906 123.019 68.9869 122.792C68.8847 122.563 68.7426 122.39 68.5608 122.274C68.379 122.156 68.1695 122.097 67.9322 122.097C67.695 122.097 67.4855 122.156 67.3037 122.274C67.1219 122.39 66.9791 122.563 66.8754 122.792C66.7731 123.019 66.722 123.298 66.722 123.629C66.722 123.96 66.7731 124.24 66.8754 124.468C66.9791 124.696 67.1219 124.868 67.3037 124.986C67.4855 125.103 67.695 125.161 67.9322 125.161C68.1695 125.161 68.379 125.103 68.5608 124.986C68.7426 124.868 68.8847 124.696 68.9869 124.468C69.0906 124.24 69.1425 123.96 69.1425 123.629ZM74.2705 121.447V125.811H73.5674L71.5113 122.838H71.475V125.811H70.6845V121.447H71.3919L73.4459 124.422H73.4843V121.447H74.2705ZM75.1318 125.811V121.447H77.9273V122.11H75.9223V123.294H77.7355V123.957H75.9223V125.811H75.1318ZM79.4379 121.447V125.811H78.6474V121.447H79.4379ZM80.2939 125.811V121.447H81.9303C82.2655 121.447 82.5468 121.505 82.774 121.622C83.0027 121.738 83.1753 121.902 83.2918 122.112C83.4097 122.321 83.4686 122.564 83.4686 122.843C83.4686 123.123 83.409 123.365 83.2897 123.571C83.1718 123.776 82.9978 123.934 82.7676 124.047C82.5375 124.157 82.2549 124.213 81.9196 124.213H80.7542V123.557H81.8131C82.0091 123.557 82.1696 123.53 82.2946 123.476C82.4196 123.42 82.512 123.34 82.5716 123.235C82.6327 123.128 82.6632 122.998 82.6632 122.843C82.6632 122.688 82.6327 122.556 82.5716 122.446C82.5105 122.336 82.4175 122.252 82.2925 122.195C82.1675 122.137 82.0063 122.108 81.8088 122.108H81.0844V125.811H80.2939ZM82.5482 123.834L83.6284 125.811H82.7463L81.6853 123.834H82.5482ZM84.1963 121.447H85.1636L86.4591 124.609H86.5102L87.8056 121.447H88.773V125.811H88.0144V122.813H87.974L86.768 125.798H86.2012L84.9953 122.807H84.9548V125.811H84.1963V121.447ZM90.1941 125.811H89.3504L90.8866 121.447H91.8625L93.4008 125.811H92.5571L91.3916 122.342H91.3575L90.1941 125.811ZM90.2218 124.1H92.523V124.735H90.2218V124.1ZM93.9756 125.811V121.447H95.6119C95.9472 121.447 96.2284 121.505 96.4557 121.622C96.6844 121.738 96.857 121.902 96.9734 122.112C97.0913 122.321 97.1503 122.564 97.1503 122.843C97.1503 123.123 97.0906 123.365 96.9713 123.571C96.8534 123.776 96.6794 123.934 96.4493 124.047C96.2192 124.157 95.9365 124.213 95.6013 124.213H94.4358V123.557H95.4947C95.6908 123.557 95.8513 123.53 95.9763 123.476C96.1013 123.42 96.1936 123.34 96.2533 123.235C96.3143 123.128 96.3449 122.998 96.3449 122.843C96.3449 122.688 96.3143 122.556 96.2533 122.446C96.1922 122.336 96.0991 122.252 95.9741 122.195C95.8491 122.137 95.6879 122.108 95.4905 122.108H94.766V125.811H93.9756ZM96.2298 123.834L97.3101 125.811H96.428L95.3669 123.834H96.2298Z" fill="white"/>
<rect x="21" y="147" width="117.297" height="21.6216" rx="2" fill="#F8EE01"/>
<path d="M65.3142 156.919H64.5173C64.4946 156.789 64.4527 156.673 64.3916 156.572C64.3305 156.47 64.2545 156.383 64.1636 156.312C64.0727 156.241 63.969 156.188 63.8525 156.152C63.7375 156.115 63.6132 156.097 63.4796 156.097C63.2424 156.097 63.0322 156.157 62.849 156.276C62.6657 156.394 62.5223 156.567 62.4186 156.796C62.3149 157.023 62.263 157.301 62.263 157.629C62.263 157.963 62.3149 158.244 62.4186 158.473C62.5237 158.7 62.6671 158.872 62.849 158.988C63.0322 159.103 63.2417 159.161 63.4775 159.161C63.6082 159.161 63.7304 159.144 63.844 159.11C63.9591 159.074 64.062 159.022 64.1529 158.954C64.2453 158.886 64.3227 158.802 64.3852 158.703C64.4491 158.603 64.4931 158.49 64.5173 158.362L65.3142 158.366C65.2843 158.574 65.2197 158.768 65.1203 158.95C65.0223 159.132 64.8937 159.292 64.7346 159.432C64.5755 159.569 64.3894 159.677 64.1764 159.755C63.9633 159.832 63.7268 159.87 63.4669 159.87C63.0833 159.87 62.741 159.782 62.4399 159.604C62.1387 159.427 61.9015 159.17 61.7282 158.835C61.5549 158.5 61.4683 158.098 61.4683 157.629C61.4683 157.159 61.5556 156.757 61.7304 156.423C61.9051 156.088 62.143 155.831 62.4441 155.654C62.7453 155.476 63.0862 155.387 63.4669 155.387C63.7098 155.387 63.9356 155.422 64.1444 155.49C64.3532 155.558 64.5393 155.658 64.7027 155.79C64.866 155.921 65.0002 156.081 65.1054 156.272C65.2119 156.461 65.2815 156.677 65.3142 156.919ZM69.9372 157.629C69.9372 158.099 69.8491 158.502 69.673 158.837C69.4983 159.171 69.2597 159.427 68.9571 159.604C68.656 159.782 68.3143 159.87 67.9322 159.87C67.5501 159.87 67.2078 159.782 66.9053 159.604C66.6041 159.425 66.3655 159.169 66.1893 158.835C66.0146 158.5 65.9273 158.098 65.9273 157.629C65.9273 157.159 66.0146 156.757 66.1893 156.423C66.3655 156.088 66.6041 155.831 66.9053 155.654C67.2078 155.476 67.5501 155.387 67.9322 155.387C68.3143 155.387 68.656 155.476 68.9571 155.654C69.2597 155.831 69.4983 156.088 69.673 156.423C69.8491 156.757 69.9372 157.159 69.9372 157.629ZM69.1425 157.629C69.1425 157.298 69.0906 157.019 68.9869 156.792C68.8847 156.563 68.7426 156.39 68.5608 156.274C68.379 156.156 68.1695 156.097 67.9322 156.097C67.695 156.097 67.4855 156.156 67.3037 156.274C67.1219 156.39 66.9791 156.563 66.8754 156.792C66.7731 157.019 66.722 157.298 66.722 157.629C66.722 157.96 66.7731 158.24 66.8754 158.468C66.9791 158.696 67.1219 158.868 67.3037 158.986C67.4855 159.103 67.695 159.161 67.9322 159.161C68.1695 159.161 68.379 159.103 68.5608 158.986C68.7426 158.868 68.8847 158.696 68.9869 158.468C69.0906 158.24 69.1425 157.96 69.1425 157.629ZM74.2705 155.447V159.811H73.5674L71.5113 156.838H71.475V159.811H70.6845V155.447H71.3919L73.4459 158.422H73.4843V155.447H74.2705ZM75.1318 159.811V155.447H77.9273V156.11H75.9223V157.294H77.7355V157.957H75.9223V159.811H75.1318ZM79.4379 155.447V159.811H78.6474V155.447H79.4379ZM80.2939 159.811V155.447H81.9303C82.2655 155.447 82.5468 155.505 82.774 155.622C83.0027 155.738 83.1753 155.902 83.2918 156.112C83.4097 156.321 83.4686 156.564 83.4686 156.843C83.4686 157.123 83.409 157.365 83.2897 157.571C83.1718 157.776 82.9978 157.934 82.7676 158.047C82.5375 158.157 82.2549 158.213 81.9196 158.213H80.7542V157.557H81.8131C82.0091 157.557 82.1696 157.53 82.2946 157.476C82.4196 157.42 82.512 157.34 82.5716 157.235C82.6327 157.128 82.6632 156.998 82.6632 156.843C82.6632 156.688 82.6327 156.556 82.5716 156.446C82.5105 156.336 82.4175 156.252 82.2925 156.195C82.1675 156.137 82.0063 156.108 81.8088 156.108H81.0844V159.811H80.2939ZM82.5482 157.834L83.6284 159.811H82.7463L81.6853 157.834H82.5482ZM84.1963 155.447H85.1636L86.4591 158.609H86.5102L87.8056 155.447H88.773V159.811H88.0144V156.813H87.974L86.768 159.798H86.2012L84.9953 156.807H84.9548V159.811H84.1963V155.447ZM90.1941 159.811H89.3504L90.8866 155.447H91.8625L93.4008 159.811H92.5571L91.3916 156.342H91.3575L90.1941 159.811ZM90.2218 158.1H92.523V158.735H90.2218V158.1ZM93.9756 159.811V155.447H95.6119C95.9472 155.447 96.2284 155.505 96.4557 155.622C96.6844 155.738 96.857 155.902 96.9734 156.112C97.0913 156.321 97.1503 156.564 97.1503 156.843C97.1503 157.123 97.0906 157.365 96.9713 157.571C96.8534 157.776 96.6794 157.934 96.4493 158.047C96.2192 158.157 95.9365 158.213 95.6013 158.213H94.4358V157.557H95.4947C95.6908 157.557 95.8513 157.53 95.9763 157.476C96.1013 157.42 96.1936 157.34 96.2533 157.235C96.3143 157.128 96.3449 156.998 96.3449 156.843C96.3449 156.688 96.3143 156.556 96.2533 156.446C96.1922 156.336 96.0991 156.252 95.9741 156.195C95.8491 156.137 95.6879 156.108 95.4905 156.108H94.766V159.811H93.9756ZM96.2298 157.834L97.3101 159.811H96.428L95.3669 157.834H96.2298Z" fill="#262626"/>
<rect x="21" y="181" width="117.297" height="21.6216" rx="2" fill="#3E68FF"/>
<path d="M65.3142 190.919H64.5173C64.4946 190.789 64.4527 190.673 64.3916 190.572C64.3305 190.47 64.2545 190.383 64.1636 190.312C64.0727 190.241 63.969 190.188 63.8525 190.152C63.7375 190.115 63.6132 190.097 63.4796 190.097C63.2424 190.097 63.0322 190.157 62.849 190.276C62.6657 190.394 62.5223 190.567 62.4186 190.796C62.3149 191.023 62.263 191.301 62.263 191.629C62.263 191.963 62.3149 192.244 62.4186 192.473C62.5237 192.7 62.6671 192.872 62.849 192.988C63.0322 193.103 63.2417 193.161 63.4775 193.161C63.6082 193.161 63.7304 193.144 63.844 193.11C63.9591 193.074 64.062 193.022 64.1529 192.954C64.2453 192.886 64.3227 192.802 64.3852 192.703C64.4491 192.603 64.4931 192.49 64.5173 192.362L65.3142 192.366C65.2843 192.574 65.2197 192.768 65.1203 192.95C65.0223 193.132 64.8937 193.292 64.7346 193.432C64.5755 193.569 64.3894 193.677 64.1764 193.755C63.9633 193.832 63.7268 193.87 63.4669 193.87C63.0833 193.87 62.741 193.782 62.4399 193.604C62.1387 193.427 61.9015 193.17 61.7282 192.835C61.5549 192.5 61.4683 192.098 61.4683 191.629C61.4683 191.159 61.5556 190.757 61.7304 190.423C61.9051 190.088 62.143 189.831 62.4441 189.654C62.7453 189.476 63.0862 189.387 63.4669 189.387C63.7098 189.387 63.9356 189.422 64.1444 189.49C64.3532 189.558 64.5393 189.658 64.7027 189.79C64.866 189.921 65.0002 190.081 65.1054 190.272C65.2119 190.461 65.2815 190.677 65.3142 190.919ZM69.9372 191.629C69.9372 192.099 69.8491 192.502 69.673 192.837C69.4983 193.171 69.2597 193.427 68.9571 193.604C68.656 193.782 68.3143 193.87 67.9322 193.87C67.5501 193.87 67.2078 193.782 66.9053 193.604C66.6041 193.425 66.3655 193.169 66.1893 192.835C66.0146 192.5 65.9273 192.098 65.9273 191.629C65.9273 191.159 66.0146 190.757 66.1893 190.423C66.3655 190.088 66.6041 189.831 66.9053 189.654C67.2078 189.476 67.5501 189.387 67.9322 189.387C68.3143 189.387 68.656 189.476 68.9571 189.654C69.2597 189.831 69.4983 190.088 69.673 190.423C69.8491 190.757 69.9372 191.159 69.9372 191.629ZM69.1425 191.629C69.1425 191.298 69.0906 191.019 68.9869 190.792C68.8847 190.563 68.7426 190.39 68.5608 190.274C68.379 190.156 68.1695 190.097 67.9322 190.097C67.695 190.097 67.4855 190.156 67.3037 190.274C67.1219 190.39 66.9791 190.563 66.8754 190.792C66.7731 191.019 66.722 191.298 66.722 191.629C66.722 191.96 66.7731 192.24 66.8754 192.468C66.9791 192.696 67.1219 192.868 67.3037 192.986C67.4855 193.103 67.695 193.161 67.9322 193.161C68.1695 193.161 68.379 193.103 68.5608 192.986C68.7426 192.868 68.8847 192.696 68.9869 192.468C69.0906 192.24 69.1425 191.96 69.1425 191.629ZM74.2705 189.447V193.811H73.5674L71.5113 190.838H71.475V193.811H70.6845V189.447H71.3919L73.4459 192.422H73.4843V189.447H74.2705ZM75.1318 193.811V189.447H77.9273V190.11H75.9223V191.294H77.7355V191.957H75.9223V193.811H75.1318ZM79.4379 189.447V193.811H78.6474V189.447H79.4379ZM80.2939 193.811V189.447H81.9303C82.2655 189.447 82.5468 189.505 82.774 189.622C83.0027 189.738 83.1753 189.902 83.2918 190.112C83.4097 190.321 83.4686 190.564 83.4686 190.843C83.4686 191.123 83.409 191.365 83.2897 191.571C83.1718 191.776 82.9978 191.934 82.7676 192.047C82.5375 192.157 82.2549 192.213 81.9196 192.213H80.7542V191.557H81.8131C82.0091 191.557 82.1696 191.53 82.2946 191.476C82.4196 191.42 82.512 191.34 82.5716 191.235C82.6327 191.128 82.6632 190.998 82.6632 190.843C82.6632 190.688 82.6327 190.556 82.5716 190.446C82.5105 190.336 82.4175 190.252 82.2925 190.195C82.1675 190.137 82.0063 190.108 81.8088 190.108H81.0844V193.811H80.2939ZM82.5482 191.834L83.6284 193.811H82.7463L81.6853 191.834H82.5482ZM84.1963 189.447H85.1636L86.4591 192.609H86.5102L87.8056 189.447H88.773V193.811H88.0144V190.813H87.974L86.768 193.798H86.2012L84.9953 190.807H84.9548V193.811H84.1963V189.447ZM90.1941 193.811H89.3504L90.8866 189.447H91.8625L93.4008 193.811H92.5571L91.3916 190.342H91.3575L90.1941 193.811ZM90.2218 192.1H92.523V192.735H90.2218V192.1ZM93.9756 193.811V189.447H95.6119C95.9472 189.447 96.2284 189.505 96.4557 189.622C96.6844 189.738 96.857 189.902 96.9734 190.112C97.0913 190.321 97.1503 190.564 97.1503 190.843C97.1503 191.123 97.0906 191.365 96.9713 191.571C96.8534 191.776 96.6794 191.934 96.4493 192.047C96.2192 192.157 95.9365 192.213 95.6013 192.213H94.4358V191.557H95.4947C95.6908 191.557 95.8513 191.53 95.9763 191.476C96.1013 191.42 96.1936 191.34 96.2533 191.235C96.3143 191.128 96.3449 190.998 96.3449 190.843C96.3449 190.688 96.3143 190.556 96.2533 190.446C96.1922 190.336 96.0991 190.252 95.9741 190.195C95.8491 190.137 95.6879 190.108 95.4905 190.108H94.766V193.811H93.9756ZM96.2298 191.834L97.3101 193.811H96.428L95.3669 191.834H96.2298Z" fill="white"/>
<rect x="217" y="79" width="117.297" height="21.6216" rx="2" fill="#24FF00"/>
<path d="M261.314 88.9195H260.517C260.495 88.7888 260.453 88.673 260.392 88.5722C260.33 88.4699 260.255 88.3832 260.164 88.3122C260.073 88.2412 259.969 88.1879 259.853 88.1524C259.737 88.1155 259.613 88.097 259.48 88.097C259.242 88.097 259.032 88.1567 258.849 88.276C258.666 88.3939 258.522 88.5672 258.419 88.7959C258.315 89.0231 258.263 89.3008 258.263 89.629C258.263 89.9628 258.315 90.244 258.419 90.4727C258.524 90.7 258.667 90.8719 258.849 90.9883C259.032 91.1034 259.242 91.1609 259.478 91.1609C259.608 91.1609 259.73 91.1439 259.844 91.1098C259.959 91.0743 260.062 91.0224 260.153 90.9543C260.245 90.8861 260.323 90.8023 260.385 90.7028C260.449 90.6034 260.493 90.4898 260.517 90.3619L261.314 90.3662C261.284 90.5736 261.22 90.7682 261.12 90.95C261.022 91.1318 260.894 91.2923 260.735 91.4315C260.576 91.5693 260.389 91.6773 260.176 91.7554C259.963 91.8321 259.727 91.8705 259.467 91.8705C259.083 91.8705 258.741 91.7817 258.44 91.6041C258.139 91.4266 257.902 91.1702 257.728 90.8349C257.555 90.4997 257.468 90.0977 257.468 89.629C257.468 89.1588 257.556 88.7568 257.73 88.423C257.905 88.0878 258.143 87.8314 258.444 87.6538C258.745 87.4763 259.086 87.3875 259.467 87.3875C259.71 87.3875 259.936 87.4216 260.144 87.4898C260.353 87.558 260.539 87.6581 260.703 87.7902C260.866 87.9209 261 88.0814 261.105 88.2717C261.212 88.4606 261.281 88.6766 261.314 88.9195ZM265.937 89.629C265.937 90.0991 265.849 90.5018 265.673 90.8371C265.498 91.1709 265.26 91.4266 264.957 91.6041C264.656 91.7817 264.314 91.8705 263.932 91.8705C263.55 91.8705 263.208 91.7817 262.905 91.6041C262.604 91.4251 262.365 91.1687 262.189 90.8349C262.015 90.4997 261.927 90.0977 261.927 89.629C261.927 89.1588 262.015 88.7568 262.189 88.423C262.365 88.0878 262.604 87.8314 262.905 87.6538C263.208 87.4763 263.55 87.3875 263.932 87.3875C264.314 87.3875 264.656 87.4763 264.957 87.6538C265.26 87.8314 265.498 88.0878 265.673 88.423C265.849 88.7568 265.937 89.1588 265.937 89.629ZM265.142 89.629C265.142 89.298 265.091 89.0189 264.987 88.7916C264.885 88.5629 264.743 88.3903 264.561 88.2739C264.379 88.156 264.169 88.097 263.932 88.097C263.695 88.097 263.486 88.156 263.304 88.2739C263.122 88.3903 262.979 88.5629 262.875 88.7916C262.773 89.0189 262.722 89.298 262.722 89.629C262.722 89.9599 262.773 90.2398 262.875 90.4685C262.979 90.6957 263.122 90.8683 263.304 90.9862C263.486 91.1027 263.695 91.1609 263.932 91.1609C264.169 91.1609 264.379 91.1027 264.561 90.9862C264.743 90.8683 264.885 90.6957 264.987 90.4685C265.091 90.2398 265.142 89.9599 265.142 89.629ZM270.27 87.4472V91.8108H269.567L267.511 88.8385H267.475V91.8108H266.685V87.4472H267.392L269.446 90.4216H269.484V87.4472H270.27ZM271.132 91.8108V87.4472H273.927V88.1098H271.922V89.2945H273.736V89.9571H271.922V91.8108H271.132ZM275.438 87.4472V91.8108H274.647V87.4472H275.438ZM276.294 91.8108V87.4472H277.93C278.266 87.4472 278.547 87.5054 278.774 87.6219C279.003 87.7383 279.175 87.9017 279.292 88.1119C279.41 88.3207 279.469 88.5643 279.469 88.8428C279.469 89.1226 279.409 89.3655 279.29 89.5714C279.172 89.776 278.998 89.9344 278.768 90.0466C278.538 90.1574 278.255 90.2128 277.92 90.2128H276.754V89.5565H277.813C278.009 89.5565 278.17 89.5295 278.295 89.4756C278.42 89.4202 278.512 89.3399 278.572 89.2348C278.633 89.1283 278.663 88.9976 278.663 88.8428C278.663 88.6879 278.633 88.5558 278.572 88.4464C278.511 88.3356 278.418 88.2518 278.293 88.195C278.168 88.1368 278.006 88.1077 277.809 88.1077H277.084V91.8108H276.294ZM278.548 89.8335L279.628 91.8108H278.746L277.685 89.8335H278.548ZM280.196 87.4472H281.164L282.459 90.6091H282.51L283.806 87.4472H284.773V91.8108H284.014V88.8129H283.974L282.768 91.798H282.201L280.995 88.8065H280.955V91.8108H280.196V87.4472ZM286.194 91.8108H285.35L286.887 87.4472H287.862L289.401 91.8108H288.557L287.392 88.342H287.357L286.194 91.8108ZM286.222 90.0999H288.523V90.7348H286.222V90.0999ZM289.976 91.8108V87.4472H291.612C291.947 87.4472 292.228 87.5054 292.456 87.6219C292.684 87.7383 292.857 87.9017 292.973 88.1119C293.091 88.3207 293.15 88.5643 293.15 88.8428C293.15 89.1226 293.091 89.3655 292.971 89.5714C292.853 89.776 292.679 89.9344 292.449 90.0466C292.219 90.1574 291.937 90.2128 291.601 90.2128H290.436V89.5565H291.495C291.691 89.5565 291.851 89.5295 291.976 89.4756C292.101 89.4202 292.194 89.3399 292.253 89.2348C292.314 89.1283 292.345 88.9976 292.345 88.8428C292.345 88.6879 292.314 88.5558 292.253 88.4464C292.192 88.3356 292.099 88.2518 291.974 88.195C291.849 88.1368 291.688 88.1077 291.49 88.1077H290.766V91.8108H289.976ZM292.23 89.8335L293.31 91.8108H292.428L291.367 89.8335H292.23Z" fill="white"/>
<rect x="217" y="113" width="117.297" height="21.6216" rx="2" fill="#FF0000"/>
<path d="M261.314 122.919H260.517C260.495 122.789 260.453 122.673 260.392 122.572C260.33 122.47 260.255 122.383 260.164 122.312C260.073 122.241 259.969 122.188 259.853 122.152C259.737 122.115 259.613 122.097 259.48 122.097C259.242 122.097 259.032 122.157 258.849 122.276C258.666 122.394 258.522 122.567 258.419 122.796C258.315 123.023 258.263 123.301 258.263 123.629C258.263 123.963 258.315 124.244 258.419 124.473C258.524 124.7 258.667 124.872 258.849 124.988C259.032 125.103 259.242 125.161 259.478 125.161C259.608 125.161 259.73 125.144 259.844 125.11C259.959 125.074 260.062 125.022 260.153 124.954C260.245 124.886 260.323 124.802 260.385 124.703C260.449 124.603 260.493 124.49 260.517 124.362L261.314 124.366C261.284 124.574 261.22 124.768 261.12 124.95C261.022 125.132 260.894 125.292 260.735 125.432C260.576 125.569 260.389 125.677 260.176 125.755C259.963 125.832 259.727 125.87 259.467 125.87C259.083 125.87 258.741 125.782 258.44 125.604C258.139 125.427 257.902 125.17 257.728 124.835C257.555 124.5 257.468 124.098 257.468 123.629C257.468 123.159 257.556 122.757 257.73 122.423C257.905 122.088 258.143 121.831 258.444 121.654C258.745 121.476 259.086 121.387 259.467 121.387C259.71 121.387 259.936 121.422 260.144 121.49C260.353 121.558 260.539 121.658 260.703 121.79C260.866 121.921 261 122.081 261.105 122.272C261.212 122.461 261.281 122.677 261.314 122.919ZM265.937 123.629C265.937 124.099 265.849 124.502 265.673 124.837C265.498 125.171 265.26 125.427 264.957 125.604C264.656 125.782 264.314 125.87 263.932 125.87C263.55 125.87 263.208 125.782 262.905 125.604C262.604 125.425 262.365 125.169 262.189 124.835C262.015 124.5 261.927 124.098 261.927 123.629C261.927 123.159 262.015 122.757 262.189 122.423C262.365 122.088 262.604 121.831 262.905 121.654C263.208 121.476 263.55 121.387 263.932 121.387C264.314 121.387 264.656 121.476 264.957 121.654C265.26 121.831 265.498 122.088 265.673 122.423C265.849 122.757 265.937 123.159 265.937 123.629ZM265.142 123.629C265.142 123.298 265.091 123.019 264.987 122.792C264.885 122.563 264.743 122.39 264.561 122.274C264.379 122.156 264.169 122.097 263.932 122.097C263.695 122.097 263.486 122.156 263.304 122.274C263.122 122.39 262.979 122.563 262.875 122.792C262.773 123.019 262.722 123.298 262.722 123.629C262.722 123.96 262.773 124.24 262.875 124.468C262.979 124.696 263.122 124.868 263.304 124.986C263.486 125.103 263.695 125.161 263.932 125.161C264.169 125.161 264.379 125.103 264.561 124.986C264.743 124.868 264.885 124.696 264.987 124.468C265.091 124.24 265.142 123.96 265.142 123.629ZM270.27 121.447V125.811H269.567L267.511 122.838H267.475V125.811H266.685V121.447H267.392L269.446 124.422H269.484V121.447H270.27ZM271.132 125.811V121.447H273.927V122.11H271.922V123.294H273.736V123.957H271.922V125.811H271.132ZM275.438 121.447V125.811H274.647V121.447H275.438ZM276.294 125.811V121.447H277.93C278.266 121.447 278.547 121.505 278.774 121.622C279.003 121.738 279.175 121.902 279.292 122.112C279.41 122.321 279.469 122.564 279.469 122.843C279.469 123.123 279.409 123.365 279.29 123.571C279.172 123.776 278.998 123.934 278.768 124.047C278.538 124.157 278.255 124.213 277.92 124.213H276.754V123.557H277.813C278.009 123.557 278.17 123.53 278.295 123.476C278.42 123.42 278.512 123.34 278.572 123.235C278.633 123.128 278.663 122.998 278.663 122.843C278.663 122.688 278.633 122.556 278.572 122.446C278.511 122.336 278.418 122.252 278.293 122.195C278.168 122.137 278.006 122.108 277.809 122.108H277.084V125.811H276.294ZM278.548 123.834L279.628 125.811H278.746L277.685 123.834H278.548ZM280.196 121.447H281.164L282.459 124.609H282.51L283.806 121.447H284.773V125.811H284.014V122.813H283.974L282.768 125.798H282.201L280.995 122.807H280.955V125.811H280.196V121.447ZM286.194 125.811H285.35L286.887 121.447H287.862L289.401 125.811H288.557L287.392 122.342H287.357L286.194 125.811ZM286.222 124.1H288.523V124.735H286.222V124.1ZM289.976 125.811V121.447H291.612C291.947 121.447 292.228 121.505 292.456 121.622C292.684 121.738 292.857 121.902 292.973 122.112C293.091 122.321 293.15 122.564 293.15 122.843C293.15 123.123 293.091 123.365 292.971 123.571C292.853 123.776 292.679 123.934 292.449 124.047C292.219 124.157 291.937 124.213 291.601 124.213H290.436V123.557H291.495C291.691 123.557 291.851 123.53 291.976 123.476C292.101 123.42 292.194 123.34 292.253 123.235C292.314 123.128 292.345 122.998 292.345 122.843C292.345 122.688 292.314 122.556 292.253 122.446C292.192 122.336 292.099 122.252 291.974 122.195C291.849 122.137 291.688 122.108 291.49 122.108H290.766V125.811H289.976ZM292.23 123.834L293.31 125.811H292.428L291.367 123.834H292.23Z" fill="white"/>
<rect x="217" y="147" width="117.297" height="21.6216" rx="2" fill="#FFF500"/>
<path d="M261.314 156.919H260.517C260.495 156.789 260.453 156.673 260.392 156.572C260.33 156.47 260.255 156.383 260.164 156.312C260.073 156.241 259.969 156.188 259.853 156.152C259.737 156.115 259.613 156.097 259.48 156.097C259.242 156.097 259.032 156.157 258.849 156.276C258.666 156.394 258.522 156.567 258.419 156.796C258.315 157.023 258.263 157.301 258.263 157.629C258.263 157.963 258.315 158.244 258.419 158.473C258.524 158.7 258.667 158.872 258.849 158.988C259.032 159.103 259.242 159.161 259.478 159.161C259.608 159.161 259.73 159.144 259.844 159.11C259.959 159.074 260.062 159.022 260.153 158.954C260.245 158.886 260.323 158.802 260.385 158.703C260.449 158.603 260.493 158.49 260.517 158.362L261.314 158.366C261.284 158.574 261.22 158.768 261.12 158.95C261.022 159.132 260.894 159.292 260.735 159.432C260.576 159.569 260.389 159.677 260.176 159.755C259.963 159.832 259.727 159.87 259.467 159.87C259.083 159.87 258.741 159.782 258.44 159.604C258.139 159.427 257.902 159.17 257.728 158.835C257.555 158.5 257.468 158.098 257.468 157.629C257.468 157.159 257.556 156.757 257.73 156.423C257.905 156.088 258.143 155.831 258.444 155.654C258.745 155.476 259.086 155.387 259.467 155.387C259.71 155.387 259.936 155.422 260.144 155.49C260.353 155.558 260.539 155.658 260.703 155.79C260.866 155.921 261 156.081 261.105 156.272C261.212 156.461 261.281 156.677 261.314 156.919ZM265.937 157.629C265.937 158.099 265.849 158.502 265.673 158.837C265.498 159.171 265.26 159.427 264.957 159.604C264.656 159.782 264.314 159.87 263.932 159.87C263.55 159.87 263.208 159.782 262.905 159.604C262.604 159.425 262.365 159.169 262.189 158.835C262.015 158.5 261.927 158.098 261.927 157.629C261.927 157.159 262.015 156.757 262.189 156.423C262.365 156.088 262.604 155.831 262.905 155.654C263.208 155.476 263.55 155.387 263.932 155.387C264.314 155.387 264.656 155.476 264.957 155.654C265.26 155.831 265.498 156.088 265.673 156.423C265.849 156.757 265.937 157.159 265.937 157.629ZM265.142 157.629C265.142 157.298 265.091 157.019 264.987 156.792C264.885 156.563 264.743 156.39 264.561 156.274C264.379 156.156 264.169 156.097 263.932 156.097C263.695 156.097 263.486 156.156 263.304 156.274C263.122 156.39 262.979 156.563 262.875 156.792C262.773 157.019 262.722 157.298 262.722 157.629C262.722 157.96 262.773 158.24 262.875 158.468C262.979 158.696 263.122 158.868 263.304 158.986C263.486 159.103 263.695 159.161 263.932 159.161C264.169 159.161 264.379 159.103 264.561 158.986C264.743 158.868 264.885 158.696 264.987 158.468C265.091 158.24 265.142 157.96 265.142 157.629ZM270.27 155.447V159.811H269.567L267.511 156.838H267.475V159.811H266.685V155.447H267.392L269.446 158.422H269.484V155.447H270.27ZM271.132 159.811V155.447H273.927V156.11H271.922V157.294H273.736V157.957H271.922V159.811H271.132ZM275.438 155.447V159.811H274.647V155.447H275.438ZM276.294 159.811V155.447H277.93C278.266 155.447 278.547 155.505 278.774 155.622C279.003 155.738 279.175 155.902 279.292 156.112C279.41 156.321 279.469 156.564 279.469 156.843C279.469 157.123 279.409 157.365 279.29 157.571C279.172 157.776 278.998 157.934 278.768 158.047C278.538 158.157 278.255 158.213 277.92 158.213H276.754V157.557H277.813C278.009 157.557 278.17 157.53 278.295 157.476C278.42 157.42 278.512 157.34 278.572 157.235C278.633 157.128 278.663 156.998 278.663 156.843C278.663 156.688 278.633 156.556 278.572 156.446C278.511 156.336 278.418 156.252 278.293 156.195C278.168 156.137 278.006 156.108 277.809 156.108H277.084V159.811H276.294ZM278.548 157.834L279.628 159.811H278.746L277.685 157.834H278.548ZM280.196 155.447H281.164L282.459 158.609H282.51L283.806 155.447H284.773V159.811H284.014V156.813H283.974L282.768 159.798H282.201L280.995 156.807H280.955V159.811H280.196V155.447ZM286.194 159.811H285.35L286.887 155.447H287.862L289.401 159.811H288.557L287.392 156.342H287.357L286.194 159.811ZM286.222 158.1H288.523V158.735H286.222V158.1ZM289.976 159.811V155.447H291.612C291.947 155.447 292.228 155.505 292.456 155.622C292.684 155.738 292.857 155.902 292.973 156.112C293.091 156.321 293.15 156.564 293.15 156.843C293.15 157.123 293.091 157.365 292.971 157.571C292.853 157.776 292.679 157.934 292.449 158.047C292.219 158.157 291.937 158.213 291.601 158.213H290.436V157.557H291.495C291.691 157.557 291.851 157.53 291.976 157.476C292.101 157.42 292.194 157.34 292.253 157.235C292.314 157.128 292.345 156.998 292.345 156.843C292.345 156.688 292.314 156.556 292.253 156.446C292.192 156.336 292.099 156.252 291.974 156.195C291.849 156.137 291.688 156.108 291.49 156.108H290.766V159.811H289.976ZM292.23 157.834L293.31 159.811H292.428L291.367 157.834H292.23Z" fill="white"/>
<rect x="217" y="181" width="117.297" height="21.6216" rx="2" fill="#0038FF"/>
<path d="M261.314 190.919H260.517C260.495 190.789 260.453 190.673 260.392 190.572C260.33 190.47 260.255 190.383 260.164 190.312C260.073 190.241 259.969 190.188 259.853 190.152C259.737 190.115 259.613 190.097 259.48 190.097C259.242 190.097 259.032 190.157 258.849 190.276C258.666 190.394 258.522 190.567 258.419 190.796C258.315 191.023 258.263 191.301 258.263 191.629C258.263 191.963 258.315 192.244 258.419 192.473C258.524 192.7 258.667 192.872 258.849 192.988C259.032 193.103 259.242 193.161 259.478 193.161C259.608 193.161 259.73 193.144 259.844 193.11C259.959 193.074 260.062 193.022 260.153 192.954C260.245 192.886 260.323 192.802 260.385 192.703C260.449 192.603 260.493 192.49 260.517 192.362L261.314 192.366C261.284 192.574 261.22 192.768 261.12 192.95C261.022 193.132 260.894 193.292 260.735 193.432C260.576 193.569 260.389 193.677 260.176 193.755C259.963 193.832 259.727 193.87 259.467 193.87C259.083 193.87 258.741 193.782 258.44 193.604C258.139 193.427 257.902 193.17 257.728 192.835C257.555 192.5 257.468 192.098 257.468 191.629C257.468 191.159 257.556 190.757 257.73 190.423C257.905 190.088 258.143 189.831 258.444 189.654C258.745 189.476 259.086 189.387 259.467 189.387C259.71 189.387 259.936 189.422 260.144 189.49C260.353 189.558 260.539 189.658 260.703 189.79C260.866 189.921 261 190.081 261.105 190.272C261.212 190.461 261.281 190.677 261.314 190.919ZM265.937 191.629C265.937 192.099 265.849 192.502 265.673 192.837C265.498 193.171 265.26 193.427 264.957 193.604C264.656 193.782 264.314 193.87 263.932 193.87C263.55 193.87 263.208 193.782 262.905 193.604C262.604 193.425 262.365 193.169 262.189 192.835C262.015 192.5 261.927 192.098 261.927 191.629C261.927 191.159 262.015 190.757 262.189 190.423C262.365 190.088 262.604 189.831 262.905 189.654C263.208 189.476 263.55 189.387 263.932 189.387C264.314 189.387 264.656 189.476 264.957 189.654C265.26 189.831 265.498 190.088 265.673 190.423C265.849 190.757 265.937 191.159 265.937 191.629ZM265.142 191.629C265.142 191.298 265.091 191.019 264.987 190.792C264.885 190.563 264.743 190.39 264.561 190.274C264.379 190.156 264.169 190.097 263.932 190.097C263.695 190.097 263.486 190.156 263.304 190.274C263.122 190.39 262.979 190.563 262.875 190.792C262.773 191.019 262.722 191.298 262.722 191.629C262.722 191.96 262.773 192.24 262.875 192.468C262.979 192.696 263.122 192.868 263.304 192.986C263.486 193.103 263.695 193.161 263.932 193.161C264.169 193.161 264.379 193.103 264.561 192.986C264.743 192.868 264.885 192.696 264.987 192.468C265.091 192.24 265.142 191.96 265.142 191.629ZM270.27 189.447V193.811H269.567L267.511 190.838H267.475V193.811H266.685V189.447H267.392L269.446 192.422H269.484V189.447H270.27ZM271.132 193.811V189.447H273.927V190.11H271.922V191.294H273.736V191.957H271.922V193.811H271.132ZM275.438 189.447V193.811H274.647V189.447H275.438ZM276.294 193.811V189.447H277.93C278.266 189.447 278.547 189.505 278.774 189.622C279.003 189.738 279.175 189.902 279.292 190.112C279.41 190.321 279.469 190.564 279.469 190.843C279.469 191.123 279.409 191.365 279.29 191.571C279.172 191.776 278.998 191.934 278.768 192.047C278.538 192.157 278.255 192.213 277.92 192.213H276.754V191.557H277.813C278.009 191.557 278.17 191.53 278.295 191.476C278.42 191.42 278.512 191.34 278.572 191.235C278.633 191.128 278.663 190.998 278.663 190.843C278.663 190.688 278.633 190.556 278.572 190.446C278.511 190.336 278.418 190.252 278.293 190.195C278.168 190.137 278.006 190.108 277.809 190.108H277.084V193.811H276.294ZM278.548 191.834L279.628 193.811H278.746L277.685 191.834H278.548ZM280.196 189.447H281.164L282.459 192.609H282.51L283.806 189.447H284.773V193.811H284.014V190.813H283.974L282.768 193.798H282.201L280.995 190.807H280.955V193.811H280.196V189.447ZM286.194 193.811H285.35L286.887 189.447H287.862L289.401 193.811H288.557L287.392 190.342H287.357L286.194 193.811ZM286.222 192.1H288.523V192.735H286.222V192.1ZM289.976 193.811V189.447H291.612C291.947 189.447 292.228 189.505 292.456 189.622C292.684 189.738 292.857 189.902 292.973 190.112C293.091 190.321 293.15 190.564 293.15 190.843C293.15 191.123 293.091 191.365 292.971 191.571C292.853 191.776 292.679 191.934 292.449 192.047C292.219 192.157 291.937 192.213 291.601 192.213H290.436V191.557H291.495C291.691 191.557 291.851 191.53 291.976 191.476C292.101 191.42 292.194 191.34 292.253 191.235C292.314 191.128 292.345 190.998 292.345 190.843C292.345 190.688 292.314 190.556 292.253 190.446C292.192 190.336 292.099 190.252 291.974 190.195C291.849 190.137 291.688 190.108 291.49 190.108H290.766V193.811H289.976ZM292.23 191.834L293.31 193.811H292.428L291.367 191.834H292.23Z" fill="white"/>
<defs>
<linearGradient id="paint0_linear_616_165" x1="275.946" y1="21.6216" x2="275.946" y2="300" gradientUnits="userSpaceOnUse">
<stop stop-color="#EBEBEB"/>
<stop offset="1" stop-color="#EBEBEB" stop-opacity="0.08"/>
</linearGradient>
<linearGradient id="paint1_linear_616_165" x1="80.2703" y1="21.6216" x2="80.2703" y2="300" gradientUnits="userSpaceOnUse">
<stop stop-color="#EBEBEB"/>
<stop offset="1" stop-color="#EBEBEB" stop-opacity="0.08"/>
</linearGradient>
</defs>
</svg>
