<svg width="1440" height="800" viewBox="0 0 1440 800" fill="none" xmlns="http://www.w3.org/2000/svg">
<rect width="1440" height="800" fill="#4A9A51"/>
<path d="M962.039 539.771C959.118 536.119 956.927 531.995 955.08 527.743C954.178 525.638 953.319 523.447 952.502 521.299C952.116 520.268 951.686 519.28 951.385 518.249C951.042 517.175 950.913 516.617 951.428 515.586C951.428 514.855 951.729 514.555 952.288 514.641C952.76 514.512 953.061 514.726 953.233 515.285C953.662 515.242 954.092 515.156 954.478 515.113C951.901 507.338 950.226 499.305 949.495 491.186C949.152 487.234 949.023 483.238 949.109 479.243C949.152 477.396 949.238 475.549 949.409 473.659C949.452 472.929 949.366 470.867 949.796 470.265C950.269 470.136 950.698 470.008 951.171 469.922C951.944 469.277 952.545 469.277 952.932 469.965C953.405 470.351 953.705 471.039 954.006 471.554C961.867 484.613 967.108 499.348 969.642 514.34C971.103 522.974 971.661 531.695 971.275 540.458C971.232 541.274 972.521 541.274 972.564 540.458C973.251 523.06 970.373 505.576 964.058 489.338C962.469 485.3 960.707 481.348 958.731 477.482C957.829 475.678 956.841 473.917 955.853 472.198C955.037 470.781 954.221 469.062 952.846 468.117C950.183 466.313 948.636 468.891 948.336 471.253C947.777 475.721 947.691 480.274 947.82 484.785C948.121 495.224 949.925 505.534 953.19 515.414C953.405 516.101 954.478 516.015 954.435 515.242C954.435 513.524 952.502 512.793 951.042 513.524C948.464 514.769 949.925 518.335 950.612 520.225C953.276 527.442 956.154 534.573 961.008 540.63C961.652 541.36 962.554 540.415 962.039 539.771Z" fill="#E8E8E8"/>
<path d="M969.599 507.638C969.942 501.924 970.672 496.254 971.918 490.626C972.52 488.006 973.164 485.386 973.98 482.808C974.367 481.519 974.796 480.231 975.226 478.985C975.441 478.34 975.656 477.696 975.913 477.095C975.999 476.837 976.085 476.579 976.214 476.321C976.386 475.419 976.987 474.904 977.975 474.732C977.889 475.462 979.049 475.591 979.221 474.904C980.08 472.069 987.039 453.812 991.292 456.948C992.538 457.85 992.882 459.955 993.096 461.372C993.44 463.348 993.741 465.367 993.955 467.343C994.342 470.737 994.6 474.131 994.686 477.567C995.072 491.528 992.967 505.576 988.5 518.85C985.922 526.453 982.572 533.713 978.534 540.629C978.104 541.359 979.221 542.004 979.651 541.273C987.77 527.441 992.967 512.062 995.029 496.211C996.06 488.221 996.318 480.145 995.717 472.112C995.416 468.288 994.986 464.465 994.299 460.685C993.913 458.623 992.967 455.573 990.519 455.186C987.297 454.671 984.806 459.998 983.517 462.145C981.154 466.055 979.35 470.221 978.018 474.56C978.448 474.603 978.877 474.689 979.264 474.732C979.522 472.67 976.944 472.541 975.913 473.873C975.14 474.861 974.796 476.321 974.41 477.481C973.679 479.5 973.035 481.562 972.434 483.624C970.157 491.443 968.825 499.476 968.353 507.595C968.267 508.454 969.556 508.454 969.599 507.638Z" fill="#E8E8E8"/>
<path d="M949.41 469.792C958.774 491.657 964.66 514.897 966.807 538.567C966.893 539.383 968.182 539.383 968.096 538.567C965.905 514.64 959.977 491.228 950.527 469.105C950.183 468.374 949.066 469.062 949.41 469.792Z" fill="#E8E8E8"/>
<path d="M949.151 498.102C953.619 500.336 957.743 503.128 961.48 506.393C962.081 506.951 963.026 506.049 962.382 505.49C958.516 502.14 954.349 499.305 949.753 496.985C949.065 496.641 948.378 497.758 949.151 498.102Z" fill="#E8E8E8"/>
<path d="M961.095 485.515C959.892 487.877 958.99 490.369 958.431 492.989C958.259 493.805 959.505 494.149 959.677 493.333C960.235 490.841 961.052 488.436 962.212 486.159C962.598 485.429 961.481 484.784 961.095 485.515Z" fill="#E8E8E8"/>
<path d="M989.189 457.936C986.397 482.895 983.347 508.669 971.19 531.093C970.803 531.823 971.92 532.468 972.306 531.738C984.592 509.099 987.642 483.152 990.478 457.936C990.563 457.12 989.275 457.12 989.189 457.936Z" fill="#E8E8E8"/>
<path d="M973.122 482.379C976.558 490.455 979.093 498.832 980.768 507.423C980.94 508.24 982.186 507.896 982.014 507.08C980.296 498.359 977.675 489.897 974.239 481.735C973.895 480.962 972.821 481.606 973.122 482.379Z" fill="#E8E8E8"/>
<path d="M986.052 488.866C989.274 484.785 992.496 480.704 995.718 476.666C996.233 476.021 995.331 475.119 994.815 475.764C991.594 479.845 988.372 483.926 985.15 487.964C984.635 488.565 985.537 489.51 986.052 488.866Z" fill="#E8E8E8"/>
<path d="M452.218 534.057C449.425 531.05 446.59 527.957 444.313 524.52C443.239 522.845 442.251 521.126 441.478 519.279C441.049 518.248 439.03 512.75 441.822 513.867C442.509 514.124 442.81 513.222 442.466 512.793C439.631 509.184 437.741 504.974 436.108 500.721C434.562 496.683 433.058 492.602 431.641 488.522C430.094 484.054 428.763 479.457 428.247 474.775C427.861 471.081 427.474 466.012 430.137 462.962C434.047 458.537 437.999 465.84 439.846 468.589C442.337 472.284 444.786 476.064 447.149 479.844C451.831 487.533 456.084 495.524 459.22 504.029C462.785 513.738 464.761 524.005 464.289 534.357C464.246 535.174 465.534 535.174 465.577 534.357C466.522 513.394 457.544 493.848 446.59 476.493C443.884 472.241 441.177 467.945 438.213 463.864C436.538 461.587 433.875 459.224 430.868 460.728C428.118 462.06 427.087 465.625 426.83 468.417C426.357 473.486 427.345 478.641 428.72 483.495C430.266 488.994 432.371 494.321 434.347 499.648C436.194 504.631 438.256 509.485 441.564 513.695C441.779 513.351 441.994 512.964 442.208 512.621C441.092 512.191 440.104 512.32 439.158 513.007C438.987 513.136 438.815 513.351 438.858 513.566C439.803 522.243 445.688 528.902 451.358 535.002C451.874 535.603 452.776 534.701 452.218 534.057Z" fill="#E8E8E8"/>
<path d="M455.739 493.204C454.408 481.176 455.997 469.105 460.379 457.807C460.035 457.893 459.648 457.979 459.305 458.108C460.636 459.311 461.539 460.685 462.054 462.404C462.226 463.005 463.128 463.048 463.3 462.404C466.221 452.266 470.474 442.6 476.058 433.622C475.672 433.579 475.285 433.536 474.898 433.45C478.249 441.999 480.354 451.02 481.041 460.213C481.643 468.461 481.857 477.954 476.831 484.956C476.574 485.3 476.831 485.816 477.218 485.901C481.084 486.804 479.924 492.904 479.581 495.653C479.065 500.206 478.292 504.76 477.304 509.227C475.414 517.862 472.665 526.325 469.185 534.444C468.841 535.217 469.958 535.861 470.302 535.088C474.383 525.637 477.433 515.757 479.366 505.662C480.225 501.023 481.213 496.125 481.299 491.4C481.342 488.694 480.655 485.3 477.605 484.613C477.734 484.913 477.862 485.257 477.991 485.558C483.017 478.556 482.931 469.191 482.416 460.943C481.815 451.363 479.667 441.956 476.187 433.064C475.972 432.548 475.328 432.419 475.027 432.892C469.4 441.956 465.104 451.707 462.14 461.974C462.569 461.974 462.956 461.974 463.386 461.974C462.784 460.041 461.796 458.494 460.293 457.12C459.906 456.776 459.391 456.948 459.219 457.421C454.794 468.804 453.205 481.047 454.536 493.161C454.536 494.02 455.825 494.02 455.739 493.204Z" fill="#E8E8E8"/>
<path d="M430.61 462.748C436.581 474.561 442.681 486.331 448.394 498.274C453.979 510.044 458.919 522.201 461.582 535.002C461.754 535.818 463 535.475 462.828 534.659C460.164 521.986 455.353 510.001 449.812 498.316C444.055 486.117 437.784 474.131 431.684 462.06C431.34 461.373 430.223 462.017 430.61 462.748Z" fill="#E8E8E8"/>
<path d="M475.158 435.255C474.256 448.013 470.304 460.213 467.382 472.585C464.461 484.957 462.442 497.543 461.325 510.216C461.239 511.032 462.528 511.032 462.614 510.216C463.774 497.114 465.922 484.098 469.015 471.339C471.936 459.397 475.544 447.584 476.446 435.255C476.489 434.396 475.201 434.396 475.158 435.255Z" fill="#E8E8E8"/>
<path d="M429.922 487.362C436.408 489.552 442.337 492.903 447.62 497.285C448.265 497.8 449.167 496.898 448.522 496.383C443.067 491.872 436.967 488.436 430.265 486.116C429.449 485.815 429.106 487.061 429.922 487.362Z" fill="#E8E8E8"/>
<path d="M458.92 458.839C460.38 466.614 462.528 474.26 465.32 481.649C465.621 482.422 466.867 482.079 466.566 481.306C463.774 473.874 461.669 466.27 460.166 458.495C459.994 457.679 458.791 458.022 458.92 458.839Z" fill="#E8E8E8"/>
<path d="M463.559 513.05C468.199 506.95 472.967 500.807 479.754 496.984C480.484 496.598 479.84 495.481 479.11 495.867C472.151 499.819 467.211 506.134 462.442 512.406C461.97 513.05 463.087 513.695 463.559 513.05Z" fill="#E8E8E8"/>
<path d="M910.319 542.09C946.446 542.09 982.617 542.09 1018.74 542.09C1020.42 542.09 1020.42 539.513 1018.74 539.513C982.617 539.513 946.446 539.513 910.319 539.513C908.644 539.513 908.644 542.09 910.319 542.09Z" fill="#161616"/>
<path d="M517.901 533.498C489.548 533.498 461.196 533.498 432.844 533.498C431.169 533.498 431.169 536.076 432.844 536.076C461.196 536.076 489.548 536.076 517.901 536.076C519.533 536.076 519.533 533.498 517.901 533.498Z" fill="#161616"/>
<path d="M806.66 563.053C845.838 563.053 885.015 563.053 924.192 563.053C935.361 563.053 946.487 563.053 957.656 563.053C959.332 563.053 959.332 560.476 957.656 560.476C918.479 560.476 879.302 560.476 840.124 560.476C828.955 560.476 817.829 560.476 806.66 560.476C805.028 560.476 804.985 563.053 806.66 563.053Z" fill="#161616"/>
<path d="M899.408 542.778C774.401 540.286 649.395 537.795 524.388 535.303C502.007 534.874 486.37 513.008 493.158 491.701L570.352 248.819C574.734 235.029 587.536 225.579 602.012 225.493C717.697 224.676 833.382 223.817 949.067 223.001C970.202 222.829 986.225 242.117 982.144 262.866L932.872 515.714C929.822 531.695 915.689 543.121 899.408 542.778Z" fill="#EC615B" stroke="#161616" stroke-width="6"/>
<path d="M897.002 540.673C771.995 538.31 646.988 535.99 521.982 533.628C499.601 533.198 483.964 512.578 490.751 492.474L567.946 263.209C572.328 250.193 585.129 241.301 599.606 241.172C715.291 240.399 830.976 239.583 946.661 238.809C967.796 238.68 983.819 256.851 979.738 276.44L930.466 515.156C927.416 530.191 913.283 540.973 897.002 540.673Z" fill="white" stroke="#161616" stroke-width="6"/>
<path d="M929.048 521.557C924.924 530.621 916.977 537.451 907.397 540.115C906.581 540.33 906.925 541.575 907.741 541.361C917.621 538.611 925.912 531.523 930.165 522.201C930.466 521.471 929.392 520.784 929.048 521.557Z" fill="#161616"/>
<path d="M605.32 234.987C604.031 234.858 603.558 233.483 603.902 232.366C604.375 230.949 605.749 230.648 607.038 231.292C607.94 231.765 608.413 232.882 608.026 233.87C607.596 234.944 606.351 235.287 605.32 234.901C604.546 234.6 604.203 235.846 604.976 236.146C606.651 236.791 608.713 235.932 609.315 234.17C609.916 232.28 608.713 230.433 606.909 229.875C604.89 229.273 603.129 230.218 602.613 232.323C602.184 234.256 603.387 236.061 605.32 236.275C606.136 236.361 606.136 235.073 605.32 234.987Z" fill="#161616"/>
<path d="M603.816 233.955C604.331 235.287 606.221 235.716 607.338 234.9C608.069 234.342 608.412 233.268 608.069 232.323C607.682 231.292 606.565 230.69 605.577 230.862C604.202 231.12 603.3 232.709 603.816 233.955Z" fill="white"/>
<path d="M619.839 234.6C618.55 234.471 618.078 233.096 618.422 231.979C618.894 230.562 620.269 230.261 621.557 230.906C622.46 231.378 622.932 232.495 622.546 233.483C622.116 234.557 620.87 234.901 619.839 234.514C619.066 234.213 618.722 235.459 619.496 235.76C621.171 236.404 623.233 235.545 623.834 233.784C624.436 231.894 623.233 230.046 621.429 229.488C619.41 228.887 617.648 229.832 617.133 231.937C616.703 233.87 617.906 235.674 619.839 235.889C620.655 235.975 620.655 234.686 619.839 234.6Z" fill="#161616"/>
<path fill-rule="evenodd" clip-rule="evenodd" d="M618.335 233.568C618.851 234.9 620.741 235.33 621.858 234.513C622.588 233.955 622.932 232.881 622.588 231.936C622.202 230.905 621.085 230.304 620.097 230.475C618.722 230.733 617.82 232.323 618.335 233.568Z" stroke="#161616"/>
<path d="M604.46 231.292C605.062 232.623 605.749 233.912 606.565 235.158C606.995 235.845 608.112 235.201 607.682 234.514C606.909 233.268 606.222 231.979 605.577 230.647C605.234 229.917 604.117 230.562 604.46 231.292Z" fill="#161616"/>
<path d="M604.59 235.158C605.191 234.643 605.75 234.084 606.351 233.569C606.866 233.096 607.382 232.538 608.026 232.194C608.757 231.808 608.112 230.691 607.382 231.077C606.738 231.421 606.222 231.979 605.664 232.495C605.019 233.096 604.332 233.698 603.688 234.299C603.086 234.815 603.988 235.717 604.59 235.158Z" fill="#161616"/>
<path d="M764.134 264.154C760.31 276.44 756.444 288.769 752.621 301.055C750.258 308.701 755.886 316.433 763.876 316.562C817.186 317.207 870.454 317.808 923.764 318.452C929.606 318.538 934.632 314.328 935.663 308.572C937.94 295.513 940.26 282.454 942.537 269.395C943.825 262.092 938.198 255.391 930.766 255.391C879.002 255.519 827.238 255.648 775.517 255.777C770.319 255.777 765.68 259.171 764.134 264.154Z" fill="white" stroke="#161616" stroke-width="3"/>
<path d="M559.569 435.427C552.138 456.777 544.706 478.127 537.274 499.477C532.678 512.708 543.589 526.196 559.054 526.368C662.238 527.442 765.465 528.559 868.65 529.633C879.99 529.762 889.742 522.502 891.675 512.493C896.142 489.854 900.567 467.172 905.035 444.534C907.526 431.818 896.615 420.22 882.224 420.22C782.004 420.435 681.784 420.649 581.564 420.864C571.469 420.907 562.576 426.792 559.569 435.427Z" fill="white" stroke="#161616" stroke-width="3"/>
<path d="M780.286 337.741C773.37 358.447 766.454 379.152 759.538 399.858C759.28 400.631 760.526 400.975 760.784 400.201C767.7 379.496 774.616 358.79 781.532 338.085C781.79 337.269 780.544 336.925 780.286 337.741Z" fill="#E8E8E8"/>
<path d="M781.101 337.87C799.057 336.925 817.1 335.465 835.099 335.465C853.012 335.465 870.882 337.011 888.71 338.557C889.526 338.643 889.526 337.355 888.71 337.269C870.882 335.722 853.012 334.219 835.099 334.176C817.1 334.176 799.057 335.636 781.101 336.581C780.285 336.624 780.242 337.913 781.101 337.87Z" fill="#E8E8E8"/>
<path d="M888.496 338.514C883.685 359.048 878.83 379.539 874.019 400.072C873.847 400.888 875.093 401.232 875.265 400.416C880.076 379.882 884.93 359.391 889.742 338.858C889.913 338.084 888.668 337.741 888.496 338.514Z" fill="#E8E8E8"/>
<path d="M760.31 402.092C789.779 400.502 819.291 400.116 848.803 401.018C857.222 401.276 865.599 401.619 874.019 402.092C874.835 402.135 874.835 400.846 874.019 400.803C844.55 399.171 815.038 398.827 785.526 399.729C777.106 399.987 768.73 400.331 760.31 400.803C759.494 400.846 759.451 402.135 760.31 402.092Z" fill="#E8E8E8"/>
<path d="M817.531 399.901C835.916 390.321 856.923 388.904 877.242 387.658C878.058 387.615 878.058 386.326 877.242 386.369C856.708 387.658 835.487 389.119 816.886 398.784C816.113 399.171 816.757 400.287 817.531 399.901Z" fill="#E8E8E8"/>
<path d="M846.871 359.005C848.89 368.842 849.921 378.851 849.964 388.903C849.964 389.719 851.252 389.719 851.252 388.903C851.166 378.722 850.135 368.627 848.116 358.661C847.945 357.845 846.699 358.188 846.871 359.005Z" fill="#E8E8E8"/>
<path d="M846.398 358.79C843.777 362.613 841.2 366.479 838.58 370.302C838.966 370.431 839.396 370.517 839.782 370.646C839.568 366.78 840.556 363.171 842.746 359.993C843.219 359.305 842.102 358.661 841.63 359.348C839.31 362.699 838.236 366.608 838.451 370.646C838.494 371.29 839.267 371.505 839.654 370.99C842.274 367.166 844.851 363.3 847.472 359.477C847.987 358.747 846.87 358.102 846.398 358.79Z" fill="#E8E8E8"/>
<path d="M842.059 358.447C840.598 357.803 839.138 357.502 837.548 357.588C836.603 357.631 832.78 358.791 833.338 357.373C833.553 356.815 834.756 356.084 835.228 355.698C836.13 354.967 837.076 354.28 838.064 353.722C840.254 352.476 842.703 351.874 845.195 352.261C846.011 352.39 846.354 351.144 845.538 351.015C840.555 350.242 835.357 352.948 832.135 356.686C831.276 357.674 831.405 359.048 832.823 359.478C833.596 359.693 834.455 359.392 835.185 359.22C837.29 358.748 839.352 358.576 841.414 359.478C842.145 359.907 842.789 358.791 842.059 358.447Z" fill="#E8E8E8"/>
<path d="M846.356 350.929C847.988 347.063 851.21 344.228 855.205 343.025C854.99 342.682 854.776 342.295 854.561 341.951C853.1 343.841 852.241 345.903 851.94 348.266C851.854 349.082 853.143 349.082 853.229 348.266C853.487 346.247 854.26 344.443 855.463 342.853C855.807 342.381 855.506 341.565 854.818 341.779C850.351 343.111 846.871 346.29 845.067 350.586C844.809 351.359 846.055 351.703 846.356 350.929Z" fill="#E8E8E8"/>
<path d="M852.885 349.039C856.235 347.106 860.187 347.063 863.581 348.91C863.581 348.523 863.581 348.18 863.581 347.793C860.875 349.082 858.297 350.628 855.849 352.347C855.161 352.819 855.806 353.936 856.493 353.464C858.942 351.745 861.519 350.199 864.225 348.91C864.655 348.695 864.612 348.008 864.225 347.793C860.402 345.688 855.978 345.731 852.24 347.922C851.51 348.352 852.154 349.469 852.885 349.039Z" fill="#E8E8E8"/>
<path d="M855.376 353.549C858.168 355.095 860.875 357.63 860.102 361.152C860.488 361.109 860.875 361.066 861.261 360.981C859.457 358.102 856.364 356.47 852.971 356.599C852.154 356.642 852.154 357.931 852.971 357.888C855.935 357.759 858.598 359.133 860.144 361.625C860.402 362.054 861.218 362.054 861.304 361.453C862.163 357.372 859.328 354.236 855.978 352.389C855.29 352.045 854.646 353.162 855.376 353.549Z" fill="#E8E8E8"/>
<path d="M851.852 357.674C853.828 367.983 854.558 378.422 854 388.904C853.957 389.72 855.246 389.72 855.289 388.904C855.847 378.336 855.117 367.726 853.098 357.33C852.926 356.514 851.68 356.857 851.852 357.674Z" fill="#E8E8E8"/>
<path d="M850.434 377.906C851.852 378.078 853.184 377.82 854.472 377.262C855.246 376.918 854.558 375.801 853.828 376.145C852.754 376.66 851.594 376.789 850.434 376.617C849.618 376.489 849.618 377.777 850.434 377.906Z" fill="#E8E8E8"/>
<path d="M765.895 384.522C772.94 384.952 780.071 385.081 787.073 385.897C790.51 386.284 793.817 387.315 797.211 387.83C800.519 388.303 803.741 387.83 807.048 387.229C821.525 384.694 836.088 386.069 850.564 387.615C851.381 387.701 851.381 386.412 850.564 386.327C836.56 384.823 822.341 383.362 808.337 385.682C804.385 386.327 800.648 387.1 796.653 386.412C793.431 385.854 790.338 384.995 787.116 384.608C780.114 383.792 772.983 383.663 765.938 383.234C765.079 383.148 765.079 384.436 765.895 384.522Z" fill="#E8E8E8"/>
<path d="M848.932 369.015C849.104 369.745 849.834 369.917 850.522 369.788C851.853 369.573 853.228 369.101 854.517 368.714C855.333 368.499 854.989 367.253 854.173 367.468C853.4 367.683 852.627 367.898 851.853 368.07C851.51 368.155 851.123 368.241 850.779 368.37C850.608 368.413 850.436 368.456 850.264 368.499C849.963 368.456 849.963 368.499 850.178 368.628C850.006 367.855 848.76 368.198 848.932 369.015Z" fill="#E8E8E8"/>
<path d="M794.506 352.604C790.253 351.23 795.795 343.927 798.759 347.192C799.833 348.352 799.79 350.371 798.802 351.573C797.685 352.948 795.752 353.163 794.248 352.304C793.518 351.874 792.873 352.991 793.604 353.421C795.795 354.666 798.759 354.194 800.133 352.003C801.379 349.984 801.035 346.848 798.845 345.602C794.076 342.939 788.363 352.003 794.205 353.893C794.978 354.108 795.322 352.862 794.506 352.604Z" fill="#E8E8E8"/>
<path d="M893.822 342.252C907.697 342.982 921.444 344.614 935.104 347.192C935.921 347.364 936.264 346.118 935.448 345.946C921.702 343.326 907.826 341.65 893.822 340.92C893.006 340.92 893.006 342.209 893.822 342.252Z" fill="#E8E8E8"/>
<path d="M893.607 345.989C906.838 347.407 920.112 348.91 933.3 350.5C934.116 350.586 934.116 349.297 933.3 349.211C920.069 347.622 906.838 346.118 893.607 344.7C892.791 344.614 892.791 345.903 893.607 345.989Z" fill="#E8E8E8"/>
<path d="M893.179 349.855C901.169 351.186 909.202 352.046 917.278 352.303C918.094 352.346 918.094 351.058 917.278 351.015C909.331 350.714 901.384 349.941 893.522 348.609C892.706 348.48 892.362 349.726 893.179 349.855Z" fill="#E8E8E8"/>
<path d="M888.367 373.009C899.235 374.555 910.147 375.844 921.058 376.875C921.874 376.961 921.874 375.672 921.058 375.586C910.233 374.555 899.45 373.267 888.711 371.763C887.895 371.634 887.551 372.88 888.367 373.009Z" fill="#E8E8E8"/>
<path d="M887.552 376.703C896.186 378.207 904.821 379.453 913.498 380.484C914.314 380.57 914.314 379.281 913.498 379.195C904.907 378.207 896.401 376.961 887.895 375.458C887.079 375.286 886.735 376.532 887.552 376.703Z" fill="#E8E8E8"/>
<path d="M886.649 382.158C897.475 384.306 908.386 385.767 919.383 386.454C920.199 386.497 920.199 385.208 919.383 385.166C908.515 384.435 897.689 383.018 886.993 380.913C886.177 380.741 885.833 381.987 886.649 382.158Z" fill="#E8E8E8"/>
<path d="M578.17 437.446C597.93 438.434 617.777 437.403 637.537 437.102C657.298 436.801 677.015 436.715 696.776 436.758C736.426 436.844 776.033 437.575 815.682 438.477C838.02 438.992 860.315 439.594 882.653 440.152C883.47 440.195 883.47 438.906 882.653 438.863C843.046 437.832 803.397 436.758 763.747 436.114C724.097 435.47 684.49 435.169 644.84 435.684C622.631 435.942 600.336 437.274 578.17 436.114C577.311 436.114 577.311 437.403 578.17 437.446Z" fill="#E8E8E8"/>
<path d="M577.396 286.149C579.974 286.536 581.778 284.774 586.89 280.994C594.58 275.281 596.212 275.109 597.372 275.195C597.93 275.238 598.961 275.41 603.815 279.061C610.903 284.388 611.333 286.02 613.653 286.149C617.863 286.321 618.464 280.994 623.49 280.521C628.044 280.092 629.461 284.259 635.089 284.044C639.427 283.915 641.962 281.252 642.348 281.81C642.821 282.54 638.74 288.168 632.855 289.07C628.516 289.714 627.571 287.18 623.361 287.781C617.519 288.64 616.402 293.967 612.106 293.581C609.572 293.323 609.228 291.433 604.846 288.426C602.527 286.836 598.489 284.087 594.064 283.743C585.945 283.142 581.735 291.003 576.838 288.726C574.475 287.652 573.144 284.731 573.444 284.388C573.659 284.044 575.163 285.805 577.396 286.149Z" fill="#161616"/>
<path d="M778.653 264.111C776.032 276.01 772.81 287.781 769.03 299.379C768.772 300.153 770.018 300.496 770.276 299.723C774.056 288.125 777.278 276.354 779.898 264.455C780.07 263.639 778.824 263.295 778.653 264.111Z" fill="#E8E8E8"/>
<path d="M769.804 300.368C774.228 300.883 778.653 300.668 783.12 300.582C787.76 300.454 792.399 300.368 797.082 300.239C806.36 300.024 815.682 299.766 824.961 299.551C825.777 299.551 825.777 298.263 824.961 298.263C815.682 298.477 806.36 298.735 797.082 298.95C792.571 299.079 788.061 299.165 783.55 299.294C778.954 299.423 774.4 299.637 769.804 299.122C768.987 298.993 768.987 300.282 769.804 300.368Z" fill="#E8E8E8"/>
<path d="M785.786 276.097C784.153 283.743 782.779 291.432 781.619 299.165C781.49 299.981 782.736 300.325 782.864 299.508C784.024 291.776 785.399 284.087 787.031 276.44C787.203 275.624 785.957 275.28 785.786 276.097Z" fill="#E8E8E8"/>
<path d="M786.772 276.784C789.049 276.913 791.282 277.128 793.516 277.557C793.387 277.3 793.216 277.042 793.087 276.784C791.068 284.044 789.349 291.39 787.932 298.778C787.76 299.595 789.006 299.938 789.178 299.122C790.595 291.733 792.313 284.388 794.332 277.128C794.418 276.827 794.247 276.397 793.903 276.354C791.54 275.925 789.22 275.667 786.815 275.538C785.913 275.452 785.913 276.741 786.772 276.784Z" fill="#E8E8E8"/>
<path d="M797.855 283.399C797.211 288.64 796.352 293.795 795.278 298.95C795.106 299.766 796.352 300.11 796.524 299.294C797.641 294.053 798.5 288.726 799.144 283.399C799.23 282.583 797.941 282.583 797.855 283.399Z" fill="#E8E8E8"/>
<path d="M798.499 283.485C800.905 283.4 803.354 283.442 805.759 283.614C805.544 283.357 805.33 283.056 805.158 282.798C804.213 287.91 803.397 293.022 802.709 298.177C802.58 298.993 803.869 298.993 803.998 298.177C804.685 293.151 805.459 288.168 806.404 283.142C806.49 282.712 806.232 282.369 805.802 282.326C803.397 282.154 800.948 282.154 798.542 282.197C797.64 282.197 797.64 283.485 798.499 283.485Z" fill="#E8E8E8"/>
<path d="M813.535 271.715C812.032 280.693 810.271 289.671 808.338 298.563C808.166 299.379 809.411 299.723 809.583 298.907C811.516 290.015 813.278 281.037 814.781 272.058C814.953 271.242 813.707 270.899 813.535 271.715Z" fill="#E8E8E8"/>
<path d="M814.565 271.07C814.565 271.156 814.565 271.199 814.565 271.285C814.565 271.629 814.866 271.929 815.21 271.929C815.553 271.929 815.854 271.629 815.854 271.285C815.854 271.199 815.854 271.156 815.854 271.07C815.854 270.726 815.553 270.426 815.21 270.426C814.866 270.469 814.565 270.726 814.565 271.07Z" fill="#E8E8E8"/>
<path d="M814.866 272.144C816.842 272.574 818.733 272.789 820.752 272.746C820.537 272.488 820.322 272.187 820.15 271.93C818.475 280.908 816.928 289.929 815.468 298.95C815.339 299.766 816.585 300.11 816.714 299.294C818.174 290.272 819.721 281.251 821.396 272.273C821.482 271.887 821.224 271.457 820.795 271.457C818.904 271.457 817.1 271.285 815.253 270.899C814.394 270.727 814.05 271.93 814.866 272.144Z" fill="#E8E8E8"/>
<path d="M834.499 269.224C849.104 269.052 863.667 269.138 878.273 269.524C879.089 269.524 879.089 268.236 878.273 268.236C863.667 267.892 849.104 267.806 834.499 267.935C833.683 267.935 833.683 269.224 834.499 269.224Z" fill="#E8E8E8"/>
<path d="M835.487 274.465C844.551 275.066 853.658 274.937 862.722 274.078C863.538 273.992 863.538 272.703 862.722 272.789C853.658 273.648 844.551 273.777 835.487 273.176C834.671 273.133 834.671 274.422 835.487 274.465Z" fill="#E8E8E8"/>
<path d="M833.511 280.951C845.968 280.736 858.426 280.951 870.884 281.595C871.7 281.638 871.7 280.349 870.884 280.306C858.426 279.619 845.968 279.404 833.511 279.662C832.694 279.662 832.694 280.951 833.511 280.951Z" fill="#E8E8E8"/>
<path d="M900.352 300.883C895.97 300.325 893.866 295.943 892.62 292.206C891.46 288.683 891.03 284.989 892.362 281.466C894.682 275.28 900.997 270.297 907.354 268.88C913.97 267.376 920.671 270.899 923.85 276.784C927.201 282.97 926.041 290.917 922.132 296.544C917.32 303.461 907.182 304.234 900.137 300.582C899.407 300.196 898.763 301.313 899.493 301.699C906.237 305.179 915.559 305.007 921.273 299.551C926.857 294.225 928.661 284.731 925.74 277.686C922.948 271.027 915.903 266.388 908.6 267.333C901.383 268.278 894.123 273.777 891.374 280.521C889.527 285.118 890.3 289.929 892.104 294.396C893.651 298.177 896.099 301.613 900.395 302.172C901.168 302.258 901.168 300.969 900.352 300.883Z" fill="#E8E8E8"/>
<path d="M902.157 270.598C904.176 275.796 906.023 281.079 907.784 286.406C908.042 287.179 909.288 286.836 909.03 286.063C907.269 280.736 905.422 275.495 903.403 270.254C903.102 269.524 901.856 269.825 902.157 270.598Z" fill="#E8E8E8"/>
<path d="M909.116 287.137C914.185 283.615 919.211 279.963 924.108 276.226C924.753 275.711 924.108 274.594 923.464 275.109C918.524 278.847 913.541 282.498 908.472 286.021C907.784 286.493 908.429 287.61 909.116 287.137Z" fill="#E8E8E8"/>
<path d="M908.901 287.18C914.658 286.922 920.328 285.977 925.869 284.345C926.643 284.13 926.342 282.884 925.526 283.099C920.113 284.688 914.572 285.634 908.901 285.848C908.085 285.934 908.085 287.223 908.901 287.18Z" fill="#E8E8E8"/>
<path d="M907.87 286.75C904.434 291.175 901.04 295.6 897.603 300.024C897.088 300.669 898.205 301.313 898.72 300.669C902.157 296.244 905.551 291.819 908.987 287.395C909.503 286.75 908.386 286.106 907.87 286.75Z" fill="#E8E8E8"/>
<path d="M579.029 435.255C577.955 434.954 578.599 433.536 579.071 433.064C579.587 432.548 580.876 432.591 581.563 432.591C582.809 432.548 584.055 432.591 585.343 432.548C587.921 432.548 590.498 432.505 593.076 432.505C598.231 432.462 603.385 432.462 608.54 432.419C618.721 432.377 628.859 432.291 639.04 432.248C659.531 432.119 679.979 432.033 700.47 431.99C741.279 431.861 782.046 431.861 822.856 432.076C834.025 432.162 845.237 432.162 856.406 432.634C861.947 432.849 867.489 433.193 873.031 433.708C875.78 433.966 878.572 434.267 881.321 434.61C882.223 434.739 883.126 434.825 884.028 434.997C884.758 435.126 885.188 434.997 885.445 435.684C886.133 437.317 883.942 438.992 882.61 439.078C881.794 439.121 881.794 440.41 882.61 440.367C885.488 440.152 887.507 437.231 886.433 434.481C886.347 434.267 886.219 434.052 886.004 434.052C865.513 431.002 844.764 431.002 824.102 430.873C802.752 430.744 781.445 430.701 760.095 430.658C717.309 430.658 674.48 430.83 631.695 431.045C619.666 431.131 607.638 431.174 595.61 431.26C592.732 431.26 589.897 431.303 587.019 431.303C584.613 431.303 581.778 430.916 579.458 431.603C577.224 432.248 575.764 435.77 578.685 436.586C579.458 436.715 579.802 435.469 579.029 435.255Z" fill="#E8E8E8"/>
<path d="M575.85 442.815C571.554 458.323 566.313 473.573 560.085 488.436C559.784 489.21 561.03 489.553 561.33 488.78C567.559 473.917 572.8 458.667 577.096 443.159C577.311 442.343 576.065 441.999 575.85 442.815Z" fill="#E8E8E8"/>
<path d="M576.281 444.104C587.321 445.436 598.705 444.534 609.788 444.405C610.604 444.405 610.604 443.116 609.788 443.116C598.705 443.288 587.321 444.147 576.281 442.816C575.422 442.73 575.465 444.018 576.281 444.104Z" fill="#E8E8E8"/>
<path d="M608.412 444.319C604.76 457.808 600.894 471.211 596.813 484.613C596.555 485.43 597.801 485.73 598.059 484.957C602.14 471.597 606.006 458.152 609.658 444.663C609.872 443.847 608.627 443.503 608.412 444.319Z" fill="#E8E8E8"/>
<path d="M560.685 489.081C566.742 489.038 572.756 488.995 578.814 488.952C581.778 488.952 584.699 488.909 587.663 488.909C590.283 488.909 592.904 488.995 595.481 488.394C596.297 488.222 595.954 486.976 595.137 487.148C592.431 487.792 589.596 487.621 586.804 487.621C583.84 487.621 580.918 487.664 577.954 487.664C572.198 487.707 566.442 487.749 560.685 487.749C559.869 487.792 559.869 489.081 560.685 489.081Z" fill="#E8E8E8"/>
<path d="M615.156 444.619C644.195 443.803 673.278 443.846 702.317 444.791C703.133 444.834 703.133 443.545 702.317 443.502C673.278 442.557 644.195 442.471 615.156 443.33C614.34 443.33 614.34 444.619 615.156 444.619Z" fill="#E8E8E8"/>
<path d="M613.953 452.18C630.792 452.137 647.632 452.137 664.514 452.094C665.33 452.094 665.33 450.806 664.514 450.806C647.675 450.849 630.835 450.849 613.953 450.892C613.094 450.892 613.094 452.18 613.953 452.18Z" fill="#E8E8E8"/>
<path d="M596.641 487.577C597.414 486.288 597.973 484.914 598.274 483.496C598.445 482.68 597.2 482.336 597.028 483.152C596.727 484.484 596.255 485.773 595.524 486.933C595.095 487.62 596.212 488.264 596.641 487.577Z" fill="#E8E8E8"/>
<path d="M757.819 448.4C754.383 464.81 751.075 481.22 747.853 497.63C747.681 498.446 748.927 498.79 749.099 497.973C752.321 481.564 755.628 465.154 759.065 448.744C759.237 447.928 757.991 447.584 757.819 448.4Z" fill="#E8E8E8"/>
<path d="M748.11 498.703C765.766 499.175 783.378 499.648 801.034 500.12C818.475 500.593 835.916 501.323 853.356 501.323C854.173 501.323 854.173 500.035 853.356 500.035C835.916 500.035 818.475 499.261 801.034 498.832C783.378 498.359 765.766 497.887 748.11 497.414C747.294 497.371 747.294 498.66 748.11 498.703Z" fill="#E8E8E8"/>
<path d="M749.4 498.574C754.727 492.818 760.054 487.019 765.38 481.262C765.08 481.262 764.779 481.262 764.478 481.262C766.239 483.453 768.301 485.257 770.707 486.718C771.437 487.147 772.082 486.031 771.351 485.601C769.032 484.226 767.056 482.465 765.38 480.36C765.166 480.102 764.693 480.145 764.478 480.36C759.151 486.117 753.825 491.916 748.498 497.672C747.94 498.274 748.842 499.176 749.4 498.574Z" fill="#E8E8E8"/>
<path d="M771.05 486.288C776.763 479.544 782.519 472.843 788.233 466.098C788.748 465.454 787.846 464.552 787.33 465.196C781.617 471.941 775.861 478.642 770.147 485.386C769.589 485.988 770.491 486.89 771.05 486.288Z" fill="#E8E8E8"/>
<path d="M787.331 465.454C788.491 467.001 789.65 468.504 790.81 470.051C791.068 470.395 791.455 470.481 791.841 470.18C797.082 465.884 802.194 461.374 807.134 456.734C807.736 456.176 806.833 455.274 806.232 455.832C801.292 460.471 796.18 464.982 790.939 469.278C791.283 469.321 791.626 469.364 791.97 469.407C790.81 467.86 789.65 466.357 788.491 464.81C787.932 464.123 786.815 464.767 787.331 465.454Z" fill="#E8E8E8"/>
<path d="M805.76 457.292C812.934 462.963 819.85 468.934 826.551 475.12C827.153 475.678 828.055 474.776 827.453 474.218C820.752 467.989 813.836 462.061 806.662 456.39C806.018 455.875 805.115 456.777 805.76 457.292Z" fill="#E8E8E8"/>
<path d="M827.324 474.948C836.173 469.32 842.531 460.643 851.165 454.714C851.853 454.242 851.208 453.125 850.521 453.598C841.887 459.526 835.529 468.203 826.68 473.831C825.992 474.26 826.637 475.377 827.324 474.948Z" fill="#E8E8E8"/>
<path d="M843.649 456.046C846.355 455.573 848.976 454.886 851.596 454.07C851.338 453.812 851.081 453.554 850.823 453.297C850.35 455.445 849.921 457.592 849.448 459.74C849.277 460.557 850.522 460.9 850.694 460.084C851.167 457.936 851.596 455.788 852.069 453.64C852.155 453.168 851.768 452.695 851.296 452.867C848.675 453.683 846.055 454.371 843.348 454.843C842.532 454.972 842.876 456.218 843.649 456.046Z" fill="#E8E8E8"/>
<path d="M773.627 451.794C772.123 467.13 770.577 482.466 769.073 497.801C768.988 498.618 770.276 498.618 770.362 497.801C771.866 482.466 773.412 467.13 774.916 451.794C774.959 450.978 773.67 450.978 773.627 451.794Z" fill="#E8E8E8"/>
<path d="M792.701 449.087C791.112 465.54 789.823 482.036 788.878 498.532C788.835 499.348 790.124 499.348 790.167 498.532C791.112 482.036 792.401 465.54 793.99 449.087C794.033 448.228 792.744 448.271 792.701 449.087Z" fill="#E8E8E8"/>
<path d="M828.699 448.614C827.024 465.797 825.821 482.98 825.091 500.249C825.048 501.065 826.337 501.065 826.38 500.249C827.11 483.023 828.313 465.797 829.988 448.614C830.074 447.798 828.785 447.798 828.699 448.614Z" fill="#E8E8E8"/>
<path d="M807.178 442.343C806.061 461.502 804.944 480.618 803.827 499.777C803.784 500.593 805.073 500.593 805.116 499.777C806.233 480.618 807.35 461.502 808.467 442.343C808.51 441.483 807.221 441.483 807.178 442.343Z" fill="#E8E8E8"/>
<path d="M673.278 451.965C681.998 452.738 690.719 450.805 699.439 451.879C700.255 451.965 700.255 450.676 699.439 450.59C690.719 449.516 681.998 451.449 673.278 450.676C672.419 450.633 672.462 451.922 673.278 451.965Z" fill="#E8E8E8"/>
<path d="M538.005 374.47C553.212 372.236 567.861 378.336 581.349 384.694C593.85 390.622 606.222 396.679 620.097 398.44C649.738 402.135 678.133 389.677 706.012 381.816C722.379 377.219 739.348 373.998 756.402 376.145C757.218 376.231 757.218 374.943 756.402 374.857C726.203 371.034 697.679 383.749 669.241 391.61C654.807 395.605 639.858 398.612 624.823 397.624C609.744 396.636 596.471 390.536 583.025 384.136C568.892 377.391 553.685 370.905 537.662 373.267C536.845 373.353 537.232 374.599 538.005 374.47Z" fill="#E8E8E8"/>
<path d="M619.366 386.198C657.212 388.217 692.265 371.334 728.478 363.215C738.917 360.896 749.528 359.263 760.267 359.048C761.083 359.048 761.083 357.76 760.267 357.76C722.464 358.619 687.883 376.017 651.112 382.675C640.63 384.565 630.02 385.51 619.366 384.952C618.55 384.823 618.55 386.112 619.366 386.198Z" fill="#E8E8E8"/>
<path d="M546.552 342.252C563.692 343.455 579.329 351.101 595.137 357.072C611.203 363.129 627.957 366.523 645.14 366.093C654.977 365.836 664.772 364.418 674.308 361.926C675.124 361.712 674.781 360.466 673.965 360.681C656.653 365.234 638.482 366.093 620.826 363.043C603.987 360.122 588.822 352.776 572.885 347.063C564.38 344.013 555.616 341.607 546.552 341.006C545.693 340.92 545.736 342.209 546.552 342.252Z" fill="#E8E8E8"/>
<path d="M663.097 259.643C662.754 261.791 662.195 263.896 661.422 265.958C661.25 266.388 661.68 266.774 662.023 266.774C689.387 267.977 716.751 268.235 744.115 267.505C744.932 267.462 744.932 266.173 744.115 266.216C716.751 266.946 689.344 266.731 662.023 265.486C662.238 265.743 662.453 266.044 662.625 266.302C663.398 264.24 663.956 262.178 664.3 259.987C664.472 259.171 663.226 258.827 663.097 259.643Z" fill="#E8E8E8"/>
<path d="M663.957 260.117C691.493 260.461 718.986 260.804 746.521 261.148C747.338 261.148 747.338 259.859 746.521 259.859C718.986 259.516 691.493 259.172 663.957 258.828C663.141 258.785 663.141 260.074 663.957 260.117Z" fill="#E8E8E8"/>
<path d="M746.393 260.374C745.533 262.393 744.889 264.498 744.545 266.689C744.417 267.505 745.662 267.849 745.791 267.033C746.135 264.971 746.693 262.952 747.51 261.019C747.81 260.246 746.693 259.601 746.393 260.374Z" fill="#E8E8E8"/>
<path d="M442.08 506.908C434.734 508.669 427.346 510.431 420 512.192C423.823 536.334 426.83 548.362 428.935 548.19C430.739 548.062 431.899 539.041 432.415 521.127C436.496 519.71 440.577 518.335 444.658 516.917C443.799 513.61 442.939 510.259 442.08 506.908Z" fill="#161616" stroke="#161616" stroke-width="3"/>
<path d="M492.297 416.912C491.352 419.747 489.935 424.257 488.474 429.971C485.424 441.87 485.295 446.939 482.202 462.06C478.508 480.059 476.618 483.152 475.415 484.914C469.959 492.732 462.399 496.297 458.275 498.23C448.309 502.913 439.03 503.342 433.531 503.128C433.317 505.662 433.102 511.848 436.796 518.077C438.643 521.17 440.834 523.275 442.51 524.606C448.051 524.907 457.588 524.692 468.327 520.526C472.924 518.764 484.651 514.039 493.586 502.311C500.459 493.29 502.349 484.484 504.454 474.604C508.535 455.574 503.466 452.695 508.535 436.543C511.585 426.749 515.108 421.938 512.616 418.329C509.652 413.905 500.33 415.065 492.297 416.912Z" fill="#EC615B"/>
<path opacity="0.09" d="M492.813 416.955C492.383 421.552 491.739 427.909 490.837 435.47C490.021 442.128 489.119 449.345 487.658 457.765C485.124 472.199 483.835 479.415 481.086 485.43C478.68 490.67 474.041 500.379 463.387 507.725C452.304 515.328 440.834 516.058 435.722 516.101C435.121 514.727 434.519 512.965 434.133 510.946C433.574 508.025 433.574 505.491 433.746 503.601C437.054 503.644 441.607 503.386 446.891 502.226C456.084 500.164 462.227 496.427 463.817 495.439C467.726 492.99 471.807 490.456 475.157 485.472C477.434 482.122 478.379 479.072 479.926 472.714C482.202 463.349 483.362 458.71 484.307 451.837C485.338 443.89 487.615 432.291 492.813 416.955Z" fill="#3D3D3D"/>
<path opacity="0.12" d="M433.833 503.471C433.661 505.361 433.575 507.939 434.176 510.903C434.606 513.094 435.25 514.898 435.852 516.316C441.737 515.07 460.252 510.344 471.721 493.419C475.115 488.393 477.134 483.453 478.38 479.2C477.22 481.907 475.201 485.859 471.635 489.682C465.492 496.254 458.447 498.66 453.378 500.378C449.083 501.882 442.381 503.6 433.833 503.471Z" fill="#3D3D3D"/>
<path d="M489.161 546.343C485.811 555.579 482.46 564.815 479.109 574.093C502.65 576.843 514.635 577.229 515.065 575.167C515.409 573.578 508.449 570.442 494.273 565.846C496.207 560.132 498.183 554.419 500.116 548.705C496.464 547.932 492.813 547.116 489.161 546.343Z" fill="#161616" stroke="#161616" stroke-width="3"/>
<path d="M524.087 421.808C524.559 428.166 524.989 436.844 524.903 447.068C524.688 475.291 520.865 496.469 519.748 502.225C516.87 517.303 511.887 536.763 502.909 558.5C500.073 558.629 493.071 558.543 486.069 554.161C481.773 551.455 479.11 548.19 477.649 545.999C480.27 541.016 483.492 534.443 486.628 526.41C492.169 512.234 494.575 500.936 496.121 493.505C499.601 476.794 501.362 468.46 499.944 459.525C498.57 451.063 496.336 449.602 496.68 442.385C496.766 440.796 497.84 422.281 509.438 418.758C515.409 416.997 521.337 420.09 524.087 421.808Z" fill="#EC615B"/>
<path opacity="0.14" d="M513.906 418.587C517.729 420.219 516.483 430.958 516.14 433.794C511.543 474.26 517.858 452.48 512.316 477.438C504.713 511.719 494.446 544.667 490.837 556.008C489.978 556.008 488.775 555.922 487.487 555.321C486.284 554.762 486.026 554.032 484.566 552.872C482.976 551.626 482.418 551.712 481.215 550.853C480.141 550.08 478.809 548.705 477.864 546.171C480.098 541.789 482.761 536.162 485.468 529.374C488.904 520.783 490.795 514.253 492.856 507.208C492.856 507.208 499.3 484.999 500.46 468.031C500.675 464.637 500.503 462.317 500.245 460.642C499.859 457.979 499.3 456.647 498.441 453.468C498.226 452.652 497.023 448.012 496.637 444.533C495.563 434.266 501.018 426.018 503.596 423.054C504.498 421.98 505.701 420.82 507.419 419.918C508.063 419.617 511.801 417.684 513.906 418.587Z" fill="#3D3D3D"/>
<path opacity="0.11" d="M504.068 488.479C503.338 498.917 500.89 502.01 493.759 527.656C490.623 538.911 488.303 548.147 486.799 554.075C485.597 553.602 484.093 552.829 482.547 551.626C480.227 549.822 478.852 547.846 478.079 546.471C480.227 542.047 483.105 535.732 485.897 527.871C487.014 524.778 487.745 522.415 488.432 520.267C498.226 488.865 499.773 479.329 500.245 472.799C500.632 467.258 500.331 462.79 500.245 461.372C499.816 455.444 498.785 451.363 498.785 451.363C498.785 451.363 505.486 468.203 504.068 488.479Z" fill="#3D3D3D"/>
<path d="M449.769 402.606C449.855 402.477 450.285 402.52 451.144 402.606C452.605 402.735 453.077 402.95 454.022 403.036C454.924 403.079 456.127 403.165 456.471 402.606C456.943 401.876 455.44 400.458 453.335 397.408C449.726 392.254 449.898 390.449 450.199 389.633C450.285 389.418 450.543 388.602 451.101 388.473C451.831 388.301 452.647 389.289 453.421 390.278C454.709 391.867 455.225 393.113 455.354 393.027C455.612 392.941 454.108 389.719 454.452 385.767C454.538 384.693 454.709 383.147 455.483 382.932C456.17 382.717 457.201 383.576 458.017 384.951C458.017 384.779 458.232 382.416 459.048 382.244C459.693 382.116 460.423 383.361 461.153 384.564C461.754 385.552 462.141 386.454 462.356 387.056C462.313 385.853 462.957 384.865 463.859 384.564C464.847 384.263 465.75 385.037 465.792 385.08C466.781 385.982 466.695 387.571 466.695 388.13C466.609 390.578 466.866 394.702 467.425 400.716C468.542 400.287 470.174 399.513 471.978 398.311C473.826 397.065 475.759 395.432 480.527 389.719C482.374 387.485 483.319 386.368 484.952 384.178C490.837 376.316 494.316 371.677 497.839 365.104C498.956 362.999 500.76 359.434 504.497 356.255C505.7 355.224 508.063 353.291 509.437 354.021C510.425 354.537 510.511 356.169 510.468 358.575C510.425 363.816 510.383 366.393 509.48 369.959C507.418 378.206 503.595 383.963 502.736 385.251C499.342 390.235 495.949 393.113 491.567 396.85C487.014 400.716 483.233 403.895 477.262 406.301C473.353 407.847 470.26 408.406 466.995 409.007C461.583 409.952 458.79 410.425 455.998 409.222C452.003 407.504 449.297 403.251 449.769 402.606Z" fill="white"/>
<path d="M509.265 353.42C504.625 354.065 501.876 358.403 499.385 361.969C496.206 366.522 493.199 371.205 490.106 375.801C487.013 380.441 483.791 384.994 480.14 389.247C478.378 391.266 476.574 393.242 474.598 395.046C472.407 397.108 470.002 399.471 467.123 400.459C466.35 400.717 466.694 401.963 467.467 401.705C471.978 400.201 475.801 395.906 478.937 392.512C482.545 388.603 485.767 384.35 488.817 379.968C491.91 375.501 494.874 370.904 497.881 366.394C500.716 362.184 504.067 355.439 509.608 354.666C510.425 354.537 510.081 353.334 509.265 353.42Z" fill="#161616"/>
<path d="M468.627 409.695C474.126 409.18 478.765 406.645 483.362 403.724C487.915 400.846 492.254 397.538 496.12 393.758C501.103 388.947 505.313 383.233 508.105 376.832C510.855 370.432 512.143 363.43 511.241 356.471C511.155 355.654 509.867 355.654 509.953 356.471C511.413 368.112 506.774 379.668 499.299 388.517C495.948 392.469 492.039 395.949 487.915 399.042C482.245 403.251 475.801 407.762 468.584 408.449C467.811 408.492 467.811 409.781 468.627 409.695Z" fill="#161616"/>
<path d="M468.627 408.364C466.093 408.321 463.644 408.922 461.153 409.094C458.274 409.309 455.869 408.449 453.506 406.86C452.561 406.216 451.53 405.442 450.929 404.411C449.683 402.221 452.26 403.509 453.162 403.767C454.623 404.197 455.955 404.025 457.072 403.037C457.716 402.478 456.771 401.576 456.17 402.135C454.236 403.853 450.628 400.03 449.339 402.221C448.351 403.896 450.628 406.302 451.745 407.204C453.678 408.793 456.041 410.082 458.575 410.383C461.926 410.769 465.277 409.609 468.627 409.695C469.443 409.652 469.443 408.364 468.627 408.364Z" fill="#161616"/>
<path d="M457.158 402.306C456.298 399.428 454.365 397.194 452.819 394.66C452.604 394.316 450.027 389.634 450.886 389.247C452.389 388.56 454.537 392.898 454.838 393.757C455.096 394.531 456.341 394.187 456.084 393.414C455.396 391.438 454.194 389.591 452.389 388.388C451.444 387.743 450.07 387.271 449.64 388.731C449.082 390.707 450.542 393.371 451.53 395.003C453.077 397.538 455.096 399.729 455.955 402.65C456.17 403.466 457.415 403.122 457.158 402.306Z" fill="#161616"/>
<path d="M456.47 393.371C456.084 391.782 455.568 390.149 455.311 388.517C455.139 387.529 455.096 386.541 455.182 385.553C455.311 384.264 455.568 382.975 456.599 384.479C458.189 386.842 458.704 390.063 459.477 392.727C459.692 393.543 460.938 393.199 460.723 392.383C460.079 390.106 459.563 387.701 458.618 385.51C458.146 384.436 457.072 382.03 455.568 382.03C454.022 382.03 453.979 384.436 453.893 385.51C453.678 388.302 454.537 390.965 455.225 393.629C455.396 394.531 456.642 394.187 456.47 393.371Z" fill="#161616"/>
<path d="M459.477 387.271C459.263 386.369 458.833 384.865 459.177 383.963C459.821 382.288 460.766 385.295 461.024 385.939C461.969 388.216 462.484 390.622 462.613 393.07C462.656 393.887 463.945 393.887 463.902 393.07C463.73 390.708 463.344 388.431 462.527 386.24C462.055 384.908 461.368 382.546 460.079 381.815C457.158 380.14 457.974 386.584 458.189 387.658C458.403 388.431 459.649 388.087 459.477 387.271Z" fill="#161616"/>
<path d="M463.817 388.774C463.774 388.345 463.473 386.025 463.989 385.595C465.406 384.35 465.793 386.626 465.965 387.314C466.265 388.774 466.222 390.407 466.351 391.91C466.566 395.003 466.781 398.053 466.996 401.146C467.039 401.962 468.327 401.962 468.284 401.146C468.07 398.053 467.855 395.003 467.64 391.91C467.511 389.762 467.683 386.927 466.566 384.994C465.965 383.963 464.934 383.018 463.731 383.791C462.184 384.822 462.399 387.571 462.614 389.118C462.7 389.934 463.946 389.59 463.817 388.774Z" fill="#161616"/>
<path opacity="0.09" d="M509.738 354.924C509.523 354.924 509.695 358.317 508.363 363.043C507.332 366.651 505.657 370.088 500.244 377.219C495.261 383.791 491.653 388.56 485.381 394.144C478.508 400.287 475.071 403.337 470.346 404.497C460.122 407.031 450.714 401.146 449.812 403.122C449.34 404.196 451.917 406.344 452.905 407.074C454.151 407.977 456.557 409.394 462.227 409.48C468.284 409.566 472.923 408.105 473.954 407.762C484.866 404.153 492.04 397.022 495.863 393.07C500.932 387.915 505.056 383.705 507.762 376.66C512.101 365.706 510.168 354.924 509.738 354.924Z" fill="#3D3D3D"/>
<path opacity="0.13" d="M508.878 371.505C508.578 371.333 506.773 374.34 504.196 377.906C504.196 377.906 498.01 386.497 490.02 393.8C485.638 397.795 477.648 403.981 464.976 408.835C467.596 409.007 471.505 408.921 475.844 407.461C477.219 406.988 480.655 405.699 488.946 398.482C495.561 392.726 499.256 389.547 502.95 383.963C506.945 377.992 509.308 371.72 508.878 371.505Z" fill="#3D3D3D"/>
<path d="M514.249 348.694C511.542 349.64 509.867 351.315 508.106 353.076C503.209 358.016 501.447 363.601 500.073 368.111C495.949 381.686 493.844 388.43 492.899 394.358C491.782 401.103 490.837 410.038 491.138 420.606C493.371 422.152 496.55 424.128 500.588 425.846C505.228 427.822 509.395 429.584 514.764 429.154C516.912 428.982 520.606 428.381 524.73 425.846C524.945 423.054 525.418 418.715 526.664 413.603C528.811 404.539 531.131 401.919 534.911 390.664C537.875 381.772 539.336 377.218 539.121 371.763C538.949 367.939 538.606 360.465 532.978 354.623C528.683 350.198 520.993 346.332 514.249 348.694Z" fill="white"/>
<path d="M512.316 348.995C507.161 352.088 504.025 357.243 501.447 362.527C498.698 368.24 496.636 374.254 495.133 380.44C491.997 393.327 491.224 406.687 490.708 419.918C490.665 420.734 491.954 420.734 491.997 419.918C492.469 407.289 493.2 394.616 496.035 382.244C497.409 376.187 499.3 370.216 501.92 364.546C504.455 359.004 507.59 353.291 512.96 350.112C513.647 349.682 513.003 348.565 512.316 348.995Z" fill="#161616"/>
<path d="M528.94 351.787C533.795 355.568 537.145 360.894 538.219 366.951C539.422 373.868 537.747 380.913 535.427 387.399C533.193 393.671 530.272 399.642 528.253 406C526.234 412.229 524.988 418.715 524.473 425.245C524.387 426.061 525.676 426.061 525.762 425.245C526.363 417.899 527.909 410.639 530.401 403.723C532.764 397.108 535.9 390.793 537.919 384.048C539.723 377.991 540.668 371.419 539.164 365.147C537.833 359.477 534.482 354.451 529.886 350.928C529.198 350.37 528.296 351.272 528.94 351.787Z" fill="#161616"/>
<path d="M490.966 420.777C496.164 425.416 502.607 428.466 509.524 429.454C515.022 430.228 522.11 430.271 525.719 425.331C526.191 424.643 525.074 423.999 524.602 424.686C520.993 429.583 513.003 428.939 507.762 427.865C501.834 426.662 496.379 423.87 491.868 419.875C491.267 419.316 490.365 420.219 490.966 420.777Z" fill="#161616"/>
<path opacity="0.11" d="M519.79 348.866C521.25 351.401 515.837 356.083 511.671 363.386C509.007 368.025 507.976 372.063 505.957 380.139C501.232 399.041 502.134 420.52 502.521 426.748C498.826 424.772 495.175 422.839 491.48 420.863C491.652 416.653 491.996 410.639 492.683 403.422C493.8 391.996 494.445 385.767 496.635 377.691C498.568 370.689 500.459 364.159 505.614 357.157C508.964 352.603 512.53 349.468 515.107 347.492C516.74 347.406 519.016 347.534 519.79 348.866Z" fill="#3D3D3D"/>
<path opacity="0.15" d="M503.381 361.839C503.939 362.011 501.663 370.989 498.011 390.836C495.605 403.852 495.047 408.534 496.98 414.334C499.472 421.765 504.498 426.276 503.553 427.264C502.951 427.865 500.374 427.006 491.482 420.348C491.267 410.983 491.868 398.053 495.605 383.232C498.57 371.505 502.779 361.625 503.381 361.839Z" fill="#3D3D3D"/>
<path d="M543.46 331.168C545.479 333.016 545.221 336.624 544.834 341.865C544.577 345.516 544.448 347.363 543.202 349.125C540.624 352.776 534.782 354.451 530.186 352.389C529.627 352.132 526.792 350.8 525.246 347.578C523.012 342.939 525.331 338.299 525.804 337.44C529.412 330.696 539.851 327.818 543.46 331.168Z" fill="#161616"/>
<path d="M543.546 307.412C545.178 307.756 546.166 310.033 548.142 314.629C549.818 318.538 550.591 321.717 550.935 323.221C551.493 325.841 551.794 328.075 551.923 329.75C550.763 330.094 549.603 330.395 548.443 330.738C548.185 332.242 547.627 334.476 546.51 336.967C544.963 340.404 543.675 343.368 540.668 344.742C537.188 346.332 533.451 344.914 532.205 344.313C531.733 345.516 531.045 346.89 530.143 348.351C529.499 349.382 528.811 350.241 528.21 350.971C524.301 351.959 522.497 350.928 521.809 350.413C518.201 347.749 518.502 339.158 524.043 329.45C523.742 328.977 523.27 328.29 522.668 327.516C521.423 325.97 520.993 325.927 520.435 325.025C520.263 324.767 518.931 322.49 520.005 320.428C520.521 319.44 521.595 318.581 522.797 318.495C524.258 318.366 524.73 319.526 525.976 319.87C528.124 320.514 530.487 318.195 536.372 312.653C541.312 308.014 542.3 307.155 543.546 307.412Z" fill="white"/>
<path d="M547.67 314.457C549.689 319.526 550.978 324.81 551.45 330.266C551.493 330.867 552.481 330.867 552.439 330.266C551.966 324.724 550.677 319.355 548.615 314.2C548.4 313.598 547.455 313.856 547.67 314.457Z" fill="#161616"/>
<path d="M551.708 329.837C550.548 329.965 549.388 330.137 548.228 330.266C547.627 330.352 547.627 331.297 548.228 331.254C549.388 331.125 550.548 330.953 551.708 330.825C552.309 330.696 552.309 329.751 551.708 329.837Z" fill="#161616"/>
<path d="M547.971 330.696C547.197 334.992 545.436 339.158 542.558 342.466C539.121 346.504 533.666 344.399 529.456 342.681C528.898 342.423 528.64 343.368 529.198 343.626C533.15 345.258 538.821 347.492 542.386 344.056C545.909 340.705 548.014 335.679 548.873 330.954C549.002 330.352 548.1 330.094 547.971 330.696Z" fill="#161616"/>
<path d="M531.56 344.528C530.658 346.59 529.541 348.523 528.253 350.37C527.909 350.885 528.725 351.358 529.069 350.842C530.358 348.995 531.474 347.019 532.377 345C532.634 344.442 531.818 343.969 531.56 344.528Z" fill="#161616"/>
<path d="M529.112 343.754C529.756 344.442 530.487 345.043 531.303 345.473C531.861 345.773 532.334 344.957 531.775 344.656C531.002 344.227 530.358 343.711 529.756 343.067C529.37 342.594 528.682 343.282 529.112 343.754Z" fill="#161616"/>
<path d="M544.063 321.46C543.805 320.944 543.848 320.3 544.192 319.87C543.934 319.784 543.633 319.741 543.376 319.655C543.505 320.386 543.505 321.073 543.462 321.803C543.633 321.632 543.805 321.46 543.934 321.331C543.977 321.417 544.02 321.503 544.106 321.589C544.235 320.987 543.29 320.729 543.161 321.331C543.032 321.846 543.376 322.319 543.934 322.319C544.235 322.319 544.407 322.104 544.407 321.846C544.493 321.03 544.45 320.257 544.321 319.441C544.278 319.097 543.719 318.968 543.505 319.226C542.86 320.042 542.731 321.073 543.247 321.975C543.505 322.491 544.364 322.018 544.063 321.46Z" fill="#161616"/>
<path d="M541.485 315.66C542.087 314.157 543.805 313.727 545.137 314.586C545.652 314.93 546.125 314.071 545.609 313.77C543.719 312.524 541.399 313.34 540.54 315.402C540.326 316.004 541.271 316.261 541.485 315.66Z" fill="#161616"/>
<path d="M539.509 323.393C539.337 323.393 539.122 323.393 538.95 323.393C538.907 323.307 538.907 323.221 538.864 323.135C538.95 322.835 539.079 322.749 539.337 322.835C539.38 322.878 539.466 322.964 539.509 323.006C539.509 323.006 539.509 323.006 539.509 322.964C539.38 322.749 539.079 322.663 538.864 322.792C538.649 322.921 538.564 323.221 538.692 323.436C538.864 323.651 539.122 323.78 539.38 323.737C539.637 323.651 539.852 323.436 539.852 323.135C539.852 322.491 538.95 322.319 538.649 322.835C538.521 323.049 538.606 323.35 538.821 323.479C539.079 323.694 539.38 323.608 539.509 323.393Z" fill="#161616"/>
<path d="M541.657 325.368C541.571 325.454 541.442 325.583 541.313 325.669C541.313 325.669 541.313 325.669 541.356 325.669C541.27 325.669 541.184 325.669 541.098 325.669C541.098 325.669 541.055 325.669 541.055 325.626C541.012 325.583 540.927 325.497 540.884 325.454V325.497C540.884 325.368 540.841 325.24 540.841 325.111C540.884 325.068 540.927 325.025 540.97 324.982C540.755 325.154 540.669 325.411 540.798 325.626C540.927 325.841 541.27 325.97 541.442 325.798C541.743 325.583 541.958 325.154 541.614 324.853C541.485 324.724 541.27 324.638 541.055 324.724C540.841 324.767 540.755 324.896 540.669 325.111C540.583 325.368 540.755 325.626 541.012 325.712C541.313 325.798 541.571 325.626 541.657 325.368Z" fill="#161616"/>
<path d="M538.263 325.412C538.22 325.412 538.22 325.412 538.177 325.412C537.576 325.412 537.533 326.4 538.177 326.4C538.22 326.4 538.22 326.4 538.263 326.4C538.908 326.4 538.908 325.412 538.263 325.412Z" fill="#161616"/>
<path d="M542.129 331.77C542.816 333.875 543.89 335.765 546.038 336.581C546.597 336.796 546.854 335.894 546.296 335.636C544.535 334.949 543.633 333.187 543.074 331.469C542.859 330.911 541.957 331.168 542.129 331.77Z" fill="#161616"/>
<path d="M542 332.285C542.257 331.899 542.687 331.684 543.202 331.598C543.46 331.555 543.589 331.211 543.546 330.997C543.46 330.696 543.202 330.61 542.945 330.653C542.214 330.739 541.613 331.168 541.183 331.77C540.797 332.285 541.613 332.801 542 332.285Z" fill="#161616"/>
<path d="M523.743 326.701C521.123 327.646 519.705 323.608 520.178 321.718C520.435 320.73 521.123 319.57 522.154 319.269C523.571 318.839 524.86 319.956 525.762 320.815C526.192 321.245 526.879 320.558 526.449 320.128C525.29 319.011 523.872 317.937 522.154 318.281C520.607 318.582 519.662 320.042 519.276 321.46C518.588 324.08 520.693 328.806 524.001 327.646C524.602 327.431 524.345 326.486 523.743 326.701Z" fill="#161616"/>
<path d="M540.153 308.358C539.637 308.959 538.864 309.947 537.962 311.236C534.697 316.004 534.998 317.937 532.721 319.312C530.96 320.386 528.253 320.729 526.192 319.87C524.645 319.226 524.215 318.238 522.884 318.281C521.423 318.324 520.049 319.527 519.49 320.944C518.803 322.62 519.49 324.166 519.963 325.154C520.392 326.056 520.994 327.388 522.282 327.689C523.099 327.86 523.829 327.56 524.215 327.345C524.173 327.817 524.087 328.548 524.044 329.45C523.829 333.187 524.258 335.765 524.43 337.44C524.86 341.478 525.246 344.7 524.044 347.75C522.196 352.303 517.6 354.322 515.925 355.053C508.794 358.188 502.178 355.568 501.276 355.181C499.859 354.58 493.071 351.788 491.396 345.43C490.365 341.607 491.525 337.741 491.997 336.108C492.212 335.421 492.77 333.703 493.887 331.727C496.336 327.345 499.859 324.682 502.307 323.178C503.123 320.214 504.498 315.961 506.904 311.107C509.61 305.608 511.113 302.558 514.55 299.723C520.006 295.213 526.192 294.654 528.211 294.525C529.242 294.439 534.311 294.139 540.325 296.587C544.577 298.306 549.56 300.368 551.622 305.479C553.985 311.451 550.634 317.379 549.99 318.496C549.818 317.765 549.475 316.648 548.744 315.575C547.67 313.985 546.468 313.341 544.663 312.095C543.503 311.193 541.957 310.033 540.153 308.358Z" fill="#161616"/>
<path d="M522.454 350.8C524.301 351.874 526.449 352.131 528.511 351.444C529.284 351.186 528.941 349.94 528.167 350.198C526.449 350.757 524.688 350.585 523.098 349.683C522.368 349.296 521.724 350.413 522.454 350.8Z" fill="#161616"/>
<path opacity="0.14" d="M520.435 325.111C520.778 326.099 521.681 326.786 522.669 326.915C523.743 327.044 524.817 326.529 525.375 325.584C525.16 327.001 524.945 329.879 526.277 333.058C528.081 337.44 531.604 339.502 533.15 340.404C536.931 342.552 540.539 342.681 542.3 342.638C541.914 343.325 541.055 344.442 539.594 345.172C536.114 346.891 532.463 344.571 532.248 344.442C531.303 346.504 530.315 348.007 529.542 349.081C528.468 350.542 528.038 350.886 527.738 351.014C525.676 352.217 522.969 350.972 522.196 350.585C521.337 351.401 520.091 352.432 518.459 353.42C517.084 354.236 513.39 356.384 508.278 356.427C508.278 356.427 501.405 356.427 495.863 351.788C493.715 349.983 492.813 348.394 492.555 347.879C492.341 347.449 491.438 345.731 491.224 342.938C490.751 337.569 493.071 333.015 494.36 330.953C496.679 327.259 499.643 325.068 501.533 323.908C501.405 324.381 499.815 331.039 503.338 334.261C507.762 338.256 517.771 334.476 519.962 328.719C520.521 327.302 520.521 325.97 520.435 325.111Z" fill="#3D3D3D"/>
<path opacity="0.07" d="M525.677 337.011C525.333 337.182 526.149 339.416 526.922 341.006C528.168 343.626 529.715 345.559 530.831 346.719C531.132 345.946 531.433 345.172 531.734 344.442C532.722 344.872 534.569 345.473 536.888 345.344C538.435 345.258 539.681 344.872 540.54 344.528C533.924 344.399 530.574 342.38 528.727 340.533C527.223 339.03 526.02 336.839 525.677 337.011Z" fill="#3D3D3D"/>
<path d="M632.379 297.361C631.778 297.017 631.649 296.201 631.563 295.643C631.262 293.624 632.766 291.991 633.024 291.648C634.613 289.886 635.515 290.788 637.019 289.156C638.136 287.953 638.05 286.965 639.768 285.376C640.885 284.302 641.271 284.431 641.357 284.474C641.959 284.731 641.443 286.063 642.045 288.125C642.56 289.843 643.205 289.843 643.419 291.304C643.462 291.69 643.763 293.624 642.603 294.74C642.088 295.256 641.4 295.385 639.983 295.643C638.35 295.943 638.136 295.771 637.019 295.986C634.312 296.502 633.367 297.919 632.379 297.361Z" fill="white"/>
<path d="M632.252 295.557C625.766 302.258 619.279 309.002 612.793 315.704C611.976 316.649 611.933 318.066 612.664 319.012C613.48 320.042 614.941 320.3 616.1 319.57C622.759 311.838 629.374 304.062 636.033 296.33C634.787 296.072 633.541 295.814 632.252 295.557Z" fill="#161616"/>
<path d="M608.797 332.242C609.012 332.8 608.325 333.96 604.587 336.452C603.513 336.237 602.611 335.636 602.439 334.862C602.182 333.574 604.029 332.5 604.845 332.113C606.349 331.426 608.497 331.469 608.797 332.242Z" fill="#161616"/>
<path d="M533.234 349.941C530.915 350.457 526.834 351.445 524.944 354.796C523.698 356.986 523.956 359.306 524.041 360.122C524.471 363.774 527.006 366.824 529.884 368.155C533.406 369.745 537.058 368.542 538.905 367.898C554.971 362.356 563.004 359.607 566.269 357.974C575.72 353.206 586.244 347.836 598.229 337.87C601.322 335.293 603.771 333.016 605.489 331.384C606.176 331.77 607.723 332.501 609.57 332.286C611.074 332.114 612.062 331.427 613.522 330.396C614.553 329.665 615.756 328.806 616.83 327.217C617.861 325.713 618.205 324.382 618.505 323.265C618.806 322.019 619.407 319.785 618.634 319.313C618.076 318.969 617.474 319.914 615.971 319.957C615.842 319.957 613.995 319.957 613.179 318.797C612.405 317.723 613.222 316.735 612.534 315.876C611.804 314.931 609.914 315.017 608.711 315.361C605.919 316.22 604.587 319.313 603.728 320.945C601.365 325.627 597.972 328.162 591.657 332.93C586.76 336.625 582.378 338.343 576.493 340.706C574.173 341.651 569.748 343.369 563.906 344.787C554.069 347.106 546.294 347.02 533.234 349.941Z" fill="white"/>
<path d="M526.19 354.365C530.614 349.941 537.574 349.769 543.416 348.953C550.246 348.008 557.076 346.977 563.778 345.387C575.677 342.638 587.49 338.041 596.812 329.965C599.261 327.817 601.538 325.455 603.428 322.748C605.146 320.3 608.411 313.083 612.449 316.52C613.093 317.035 613.995 316.133 613.351 315.618C611.804 314.286 609.742 314.2 607.938 315.102C605.404 316.391 604.244 319.226 602.74 321.503C598.831 327.431 592.903 331.984 586.803 335.464C573.959 342.767 559.181 345.387 544.748 347.492C538.218 348.437 530.314 348.523 525.331 353.463C524.686 354.022 525.588 354.924 526.19 354.365Z" fill="#161616"/>
<path d="M525.244 352.819C522.366 357.717 522.924 364.203 527.736 367.683C533.492 371.85 541.568 367.898 547.453 365.879C561.329 361.067 574.56 354.538 586.845 346.462C593.676 341.994 600.162 337.011 606.305 331.641C606.95 331.083 606.005 330.181 605.403 330.739C586.115 347.579 562.703 360.895 537.874 367.554C533.621 368.714 529.196 368.456 526.447 364.59C524.041 361.282 524.342 356.9 526.361 353.507C526.791 352.776 525.674 352.132 525.244 352.819Z" fill="#161616"/>
<path d="M617.818 318.41C618.033 319.398 618.248 320.472 618.162 321.503C617.99 322.92 617.302 323.393 616.787 324.553C616.572 325.068 616.529 325.584 616.357 326.099C616.014 327.259 615.541 327.517 614.725 328.204C613.823 328.934 613.307 329.793 612.534 330.61C611.288 331.941 610.558 331.512 609.012 331.34C607.895 331.211 606.735 331.039 605.618 330.91C604.802 330.824 604.802 332.113 605.618 332.199C607.465 332.457 610.601 333.531 612.319 332.629C613.007 332.285 613.393 331.641 613.823 331.039C614.381 330.266 614.897 329.622 615.756 329.192C616.186 328.977 616.4 329.149 616.787 328.805C617.26 328.419 617.388 327.774 617.517 327.216C617.818 325.841 618.248 324.939 618.849 323.736C619.751 321.975 619.45 319.999 619.064 318.152C618.892 317.25 617.646 317.593 617.818 318.41Z" fill="#161616"/>
<path d="M612.534 316.005C611.546 317.465 612.32 319.57 613.866 320.258C615.67 321.074 617.689 319.871 618.591 318.282C619.021 317.551 617.904 316.907 617.474 317.637C616.916 318.625 615.756 319.527 614.596 319.141C613.565 318.84 613.007 317.551 613.651 316.649C614.081 315.962 612.964 315.317 612.534 316.005Z" fill="#161616"/>
<path d="M613.35 316.606C619.837 309.862 626.238 303.031 632.553 296.115C633.111 295.514 632.209 294.569 631.65 295.213C625.336 302.129 618.935 308.96 612.448 315.704C611.847 316.262 612.749 317.207 613.35 316.606Z" fill="#161616"/>
<path d="M618.549 317.981C624.734 310.85 630.877 303.719 637.063 296.588C637.622 295.943 636.677 295.041 636.161 295.686C629.975 302.817 623.832 309.947 617.646 317.078C617.088 317.723 617.99 318.625 618.549 317.981Z" fill="#161616"/>
<path d="M608.281 332.07C607.465 332.887 606.649 333.746 605.833 334.562C605.575 334.82 605.189 335.378 604.888 335.55C603.814 336.108 603.255 335.034 602.869 334.347C602.439 333.617 601.322 334.261 601.752 334.992C602.396 336.065 603.47 337.44 604.888 337.011C605.661 336.796 606.219 336.023 606.735 335.464C607.551 334.648 608.367 333.789 609.184 332.973C609.785 332.371 608.84 331.469 608.281 332.07Z" fill="#161616"/>
<path d="M636.72 296.415C639.297 297.575 642.433 296.888 643.765 294.225C644.409 292.936 644.452 291.389 643.98 290.058C643.163 287.91 640.199 286.02 642.82 283.786C643.464 283.227 642.519 282.325 641.918 282.884C640.414 284.172 639.985 286.149 640.973 287.867C641.918 289.542 643.421 290.487 642.949 292.678C642.433 295.256 639.684 296.329 637.407 295.298C636.591 294.955 635.947 296.072 636.72 296.415Z" fill="#161616"/>
<path d="M632.466 294.999C632.723 293.108 633.411 291.863 635.086 290.918C635.945 290.445 636.847 290.058 637.621 289.457C639.21 288.168 639.683 285.806 641.573 284.861C642.303 284.474 641.659 283.4 640.928 283.744C639.854 284.259 639.21 285.075 638.609 286.106C637.664 287.61 636.804 288.598 635.215 289.414C632.638 290.746 631.564 292.077 631.177 294.999C631.091 295.815 632.38 295.815 632.466 294.999Z" fill="#161616"/>
<path d="M632.251 296.244C633.454 295.772 634.7 295.944 635.731 296.717C636.375 297.232 637.02 296.115 636.375 295.6C635.086 294.612 633.368 294.397 631.865 294.999C631.134 295.299 631.478 296.545 632.251 296.244Z" fill="#161616"/>
<path d="M636.505 290.316C638.18 289.757 639.899 289.714 641.617 290.144C642.433 290.359 642.777 289.113 641.961 288.898C640.028 288.425 638.052 288.468 636.161 289.07C635.388 289.328 635.732 290.573 636.505 290.316Z" fill="#161616"/>
<path d="M635.775 290.316C638.911 288.984 639.856 285.333 642.777 283.701C642.52 283.357 642.262 283.013 642.004 282.67C639.77 284.689 641.746 287.438 642.305 289.672C642.606 289.414 642.949 289.199 643.25 288.942C641.618 288.254 639.985 287.953 638.224 288.082C638.396 288.426 638.611 288.727 638.782 289.07C639.384 287.911 640.114 286.88 640.93 285.849C640.587 285.634 640.2 285.419 639.856 285.204C639.513 286.106 639.083 287.223 639.255 288.168C639.298 288.426 639.599 288.641 639.856 288.641C640.887 288.598 641.145 287.18 641.489 286.407C641.102 286.278 640.672 286.192 640.286 286.063C640.372 286.708 640.587 287.481 640.501 288.168C640.587 287.996 640.715 287.782 640.801 287.61C640.501 287.782 639.341 287.653 638.825 287.782C637.966 287.953 637.236 288.254 636.463 288.684C635.904 288.984 636.162 289.93 636.806 289.887C637.88 289.801 638.954 289.672 640.028 289.586C640.844 289.5 640.844 288.211 640.028 288.297C638.954 288.383 637.88 288.512 636.806 288.598C636.935 288.984 637.021 289.414 637.15 289.801C638.052 289.328 639.04 288.984 640.071 288.942C640.458 288.899 641.059 289.07 641.403 288.813C642.176 288.254 641.661 286.923 641.575 286.106C641.489 285.548 640.672 285.118 640.372 285.763C640.329 285.892 639.641 287.352 639.856 287.352C640.071 287.524 640.286 287.653 640.458 287.825C640.329 287.18 640.844 286.106 641.059 285.548C641.274 284.946 640.372 284.431 639.985 284.904C639.083 285.977 638.31 287.137 637.622 288.383C637.408 288.77 637.665 289.414 638.181 289.371C639.727 289.242 641.145 289.457 642.563 290.058C643.078 290.273 643.68 289.93 643.508 289.328C643.078 287.61 641.188 285.075 642.863 283.572C643.422 283.056 642.691 282.197 642.09 282.541C639.212 284.173 638.181 287.825 635.088 289.156C634.358 289.543 635.045 290.617 635.775 290.316Z" fill="#161616"/>
<path d="M642.045 282.368C640.241 283.485 639.124 285.161 637.792 286.75C636.976 287.738 636.074 288.339 635.172 289.199C634.828 289.499 634.527 289.671 634.527 290.144C634.527 290.23 634.57 290.358 634.699 290.401C637.406 291.561 640.413 288.468 643.076 290.659C643.248 290.788 643.463 290.788 643.591 290.573C644.365 289.456 642.646 288.382 642.002 287.695C641.787 287.48 641.358 287.695 641.444 287.996C641.572 288.425 641.529 288.382 641.83 288.726C642.088 289.07 642.646 288.726 642.389 288.382C642.303 288.168 642.174 287.996 642.088 287.781C641.916 287.867 641.744 287.996 641.529 288.082C641.83 288.382 643.42 289.628 643.033 290.187C643.205 290.144 643.377 290.144 643.548 290.101C642.646 289.37 641.615 289.027 640.413 289.07C639.725 289.113 639.038 289.242 638.351 289.37C637.792 289.499 637.277 289.628 636.718 289.671C636.117 289.757 635.386 290.101 635.859 289.285C636.117 288.855 636.89 288.468 637.234 288.125C637.749 287.609 638.222 287.051 638.651 286.449C639.768 285.075 640.799 283.7 642.303 282.755C642.732 282.712 642.389 282.154 642.045 282.368Z" fill="#161616"/>
<path d="M635.43 290.617C636.719 290.788 637.965 290.359 639.254 290.187C640.328 290.058 641.187 290.23 642.175 290.574C642.733 290.788 643.077 290.917 643.678 290.831C643.893 290.788 644.022 290.66 643.979 290.445C643.893 289.886 643.764 289.586 643.464 289.113C643.249 288.769 642.69 289.113 642.905 289.457C643.206 289.8 643.335 290.187 643.378 290.617C643.464 290.488 643.592 290.359 643.678 290.23C642.476 290.359 641.273 289.5 640.027 289.5C638.566 289.543 637.063 290.23 635.602 290.015C635.173 289.929 635.001 290.531 635.43 290.617Z" fill="#161616"/>
<path d="M641.531 283.485C641.746 283.185 642.003 282.927 642.347 282.755C642.433 282.712 642.734 282.497 642.82 282.583C642.948 282.669 642.605 282.927 642.519 282.97C642.003 283.4 641.66 283.958 641.402 284.559C641.23 284.946 641.875 285.118 642.003 284.731C642.261 284.13 642.691 283.743 643.163 283.271C643.464 283.013 643.636 282.626 643.335 282.24C642.691 281.381 641.445 282.497 641.015 283.056C640.801 283.357 641.273 283.829 641.531 283.485Z" fill="#161616"/>
<path d="M642.99 282.068C642.26 282.541 641.745 283.271 641.53 284.13C641.444 284.517 642.045 284.689 642.131 284.302C642.303 283.615 642.69 283.056 643.291 282.627C643.678 282.369 643.334 281.811 642.99 282.068Z" fill="#161616"/>
<path d="M525.76 354.279C527.135 351.573 532.118 350.542 534.867 350.198C535.683 350.07 535.339 348.824 534.523 348.953C531.43 349.382 526.232 350.585 524.643 353.635C524.299 354.365 525.416 355.053 525.76 354.279Z" fill="#161616"/>
<path opacity="0.13" d="M524.3 360.508C528.166 360.251 533.793 359.735 540.452 358.446C559.525 354.795 573.1 347.707 581.39 343.325C588.264 339.674 597.371 334.218 607.38 326.357C611.762 324.939 614.468 323.006 616.186 321.46C617.346 320.429 618.205 319.398 618.635 319.613C619.322 319.999 618.248 323.565 616.788 326.142C615.499 328.462 613.995 329.794 613.523 330.223C612.32 331.254 611.633 331.984 610.473 332.285C608.325 332.844 606.392 331.684 605.747 331.254C604.158 332.5 601.838 334.347 598.96 336.538C587.362 345.344 581.519 349.769 573.83 353.979C566.742 357.845 560.814 360.165 549.258 364.632C548.184 365.062 546.767 365.534 543.931 366.479C536.371 369.014 534.567 369.315 532.462 368.928C531.603 368.756 529.498 368.37 527.565 366.694C525.03 364.417 524.472 361.496 524.3 360.508Z" fill="#3D3D3D"/>
<path opacity="0.19" d="M558.364 360.81C558.278 360.681 559.008 360.079 575.117 349.856C596.338 336.367 594.835 337.57 597.069 335.937C606.348 329.064 610.471 324.425 612.619 325.799C614.08 326.744 614.338 330.181 612.748 331.684C611.374 333.016 608.495 332.887 605.918 330.997C600.72 335.637 592.988 341.951 582.807 348.352C570.779 355.784 558.665 361.325 558.364 360.81Z" fill="#3D3D3D"/>
</svg>
