<svg width="25" height="25" viewBox="0 0 25 25" fill="none" xmlns="http://www.w3.org/2000/svg">
<g clip-path="url(#clip0_7903_121)">
<path d="M12.6643 21.4697C17.6349 21.4697 21.6643 17.4403 21.6643 12.4697C21.6643 7.49916 17.6349 3.46973 12.6643 3.46973C7.69374 3.46973 3.66431 7.49916 3.66431 12.4697C3.66431 17.4403 7.69374 21.4697 12.6643 21.4697Z" stroke="#986DFF" stroke-width="1.5" stroke-linecap="round" stroke-linejoin="round"/>
<path d="M7.77808 12.0254L9.02683 9.84474C9.09275 9.73056 9.1876 9.63578 9.30182 9.56994C9.41605 9.5041 9.54561 9.46954 9.67745 9.46974H11.244C11.3707 9.46994 11.4953 9.43767 11.6059 9.37599L12.7581 8.74224C12.8088 8.71496 12.8557 8.68124 12.8978 8.64192L15.4215 6.36099C15.5471 6.24678 15.6302 6.09335 15.6573 5.92579C15.6844 5.75822 15.6538 5.58643 15.5706 5.43849L14.5862 3.67505" stroke="#986DFF" stroke-width="1.5" stroke-linecap="round" stroke-linejoin="round"/>
<path d="M7.01874 5.45996L5.91436 8.0709C5.83977 8.24765 5.83574 8.44627 5.90311 8.6259L6.98124 11.5012C7.02554 11.6187 7.09862 11.7232 7.19379 11.8051C7.28895 11.887 7.40316 11.9437 7.52593 11.97L9.53499 12.4021C9.64642 12.426 9.75094 12.475 9.84061 12.5454C9.93028 12.6157 10.0027 12.7056 10.0525 12.8081L10.4087 13.5459C10.4702 13.6727 10.5661 13.7795 10.6855 13.8543C10.8049 13.9291 10.9429 13.9687 11.0837 13.9687H12.3775" stroke="#986DFF" stroke-width="1.5" stroke-linecap="round" stroke-linejoin="round"/>
<path d="M20.6415 16.6397L15.7309 13.6191C15.6416 13.5646 15.542 13.5292 15.4384 13.515L13.299 13.2263C13.1383 13.2045 12.9749 13.2354 12.8333 13.3143C12.6916 13.3933 12.5794 13.516 12.5134 13.6641L11.229 16.546C11.1693 16.6801 11.1503 16.8287 11.1743 16.9735C11.1983 17.1184 11.2642 17.253 11.364 17.3606L13.2146 19.2666C13.2948 19.3528 13.3536 19.4568 13.3862 19.57C13.4188 19.6832 13.4242 19.8024 13.4021 19.9181L13.1049 21.4594" stroke="#986DFF" stroke-width="1.5" stroke-linecap="round" stroke-linejoin="round"/>
</g>
<defs>
<clipPath id="clip0_7903_121">
<rect width="24" height="24" fill="white" transform="translate(0.664307 0.469727)"/>
</clipPath>
</defs>
</svg>
