<svg width="251" height="180" viewBox="0 0 251 180" fill="none" xmlns="http://www.w3.org/2000/svg">
<rect x="51.5" y="36.5" width="199" height="31" rx="3.5" fill="white" stroke="#AAAAAA"/>
<path d="M59.6836 56H64.0488V55.209H60.5625V52.7871H63.8682V52.0059H60.5625V49.7451H64.0488V48.9541H59.6836V56ZM65.1084 53.5391H68.2334V52.748H65.1084V53.5391ZM69.3662 56H70.2158V52.8164C70.2158 52.1084 70.7041 51.5762 71.3779 51.5762C72.0078 51.5762 72.418 51.9814 72.418 52.5967V56H73.2676V52.7725C73.2676 52.0791 73.7412 51.5762 74.415 51.5762C75.084 51.5762 75.4697 51.9912 75.4697 52.6895V56H76.3193V52.4941C76.3193 51.4834 75.6699 50.8242 74.6641 50.8242C73.9512 50.8242 73.3555 51.1904 73.0723 51.8008H73.0527C72.833 51.1807 72.3203 50.8242 71.627 50.8242C70.9727 50.8242 70.4648 51.1611 70.2354 51.6641H70.2158V50.9219H69.3662V56ZM78.8877 56.0977C79.5664 56.0977 80.1768 55.7314 80.4746 55.1748H80.4941V56H81.3438V52.4893C81.3438 51.4736 80.5918 50.8242 79.3906 50.8242C78.1943 50.8242 77.4668 51.498 77.3936 52.333L77.3887 52.3867H78.209L78.2188 52.3428C78.3164 51.8887 78.7266 51.5762 79.3809 51.5762C80.0889 51.5762 80.4941 51.9521 80.4941 52.5723V52.9971L79.0391 53.0801C77.8721 53.1484 77.1982 53.6904 77.1982 54.5547V54.5645C77.1982 55.4873 77.877 56.0977 78.8877 56.0977ZM78.0674 54.5645V54.5547C78.0674 54.0811 78.458 53.7783 79.1367 53.7393L80.4941 53.6562V54.0713C80.4941 54.8086 79.8789 55.3604 79.0781 55.3604C78.4678 55.3604 78.0674 55.0527 78.0674 54.5645ZM82.9014 50.0625C83.1992 50.0625 83.4336 49.8232 83.4336 49.5303C83.4336 49.2324 83.1992 48.998 82.9014 48.998C82.6084 48.998 82.3691 49.2324 82.3691 49.5303C82.3691 49.8232 82.6084 50.0625 82.9014 50.0625ZM82.4766 56H83.3262V50.9219H82.4766V56ZM84.5273 56H85.377V48.9541H84.5273V56Z" fill="#AAAAAA"/>
<rect x="51.5" y="84.5" width="199" height="31" rx="3.5" fill="white" stroke="#AAAAAA"/>
<path d="M61.9883 104.117C63.5996 104.117 64.5908 103.326 64.5908 102.076V102.071C64.5908 100.997 63.9854 100.411 62.54 100.094L61.7588 99.9229C60.8408 99.7227 60.416 99.3613 60.416 98.7852V98.7803C60.416 98.1016 61.0312 97.6523 61.9736 97.6475C62.8672 97.6475 63.4678 98.0723 63.5752 98.79L63.585 98.8584H64.4639L64.459 98.7852C64.3809 97.6328 63.375 96.8369 61.998 96.8369C60.5479 96.8369 59.5225 97.6475 59.5176 98.8047V98.8096C59.5176 99.8398 60.1621 100.46 61.5391 100.763L62.3203 100.934C63.2871 101.148 63.6924 101.495 63.6924 102.115V102.12C63.6924 102.848 63.0527 103.307 62.0371 103.307C61.0166 103.307 60.333 102.872 60.2305 102.164L60.2207 102.096H59.3418L59.3467 102.164C59.4346 103.37 60.4648 104.117 61.9883 104.117ZM67.5791 104.098C68.6875 104.098 69.5176 103.434 69.6836 102.594L69.6934 102.545H68.8584L68.8438 102.589C68.6973 103.023 68.2432 103.346 67.5986 103.346C66.6953 103.346 66.1191 102.735 66.0996 101.69H69.7568V101.378C69.7568 99.8545 68.9121 98.8242 67.5254 98.8242C66.1387 98.8242 65.2402 99.9033 65.2402 101.476V101.48C65.2402 103.077 66.1191 104.098 67.5791 104.098ZM67.5205 99.5762C68.2627 99.5762 68.8096 100.04 68.8926 101.026H66.1143C66.207 100.079 66.7832 99.5762 67.5205 99.5762ZM70.6162 104H71.4658V101.012C71.4658 100.147 71.9883 99.5762 72.7891 99.5762C73.5703 99.5762 73.9561 100.03 73.9561 100.855V104H74.8057V100.704C74.8057 99.5469 74.1611 98.8242 73.0479 98.8242C72.2764 98.8242 71.7588 99.1709 71.4854 99.6445H71.4658V98.9219H70.6162V104ZM75.9336 104H76.7832V101.036C76.7832 100.172 77.3057 99.5762 78.0918 99.5762C78.8828 99.5762 79.3516 100.118 79.3516 101.036V104H80.2012V100.89C80.2012 99.6592 79.4639 98.8242 78.3848 98.8242C77.6279 98.8242 77.0762 99.1611 76.8027 99.7324H76.7832V96.9541H75.9336V104ZM82.7646 104.098C83.4434 104.098 84.0537 103.731 84.3516 103.175H84.3711V104H85.2207V100.489C85.2207 99.4736 84.4688 98.8242 83.2676 98.8242C82.0713 98.8242 81.3438 99.498 81.2705 100.333L81.2656 100.387H82.0859L82.0957 100.343C82.1934 99.8887 82.6035 99.5762 83.2578 99.5762C83.9658 99.5762 84.3711 99.9521 84.3711 100.572V100.997L82.916 101.08C81.749 101.148 81.0752 101.69 81.0752 102.555V102.564C81.0752 103.487 81.7539 104.098 82.7646 104.098ZM81.9443 102.564V102.555C81.9443 102.081 82.335 101.778 83.0137 101.739L84.3711 101.656V102.071C84.3711 102.809 83.7559 103.36 82.9551 103.36C82.3447 103.36 81.9443 103.053 81.9443 102.564Z" fill="#AAAAAA"/>
<rect x="51" y="148" width="200" height="32" rx="4" fill="#3E68FF"/>
<path d="M119.649 168H124.122V167.058H120.743V164.87H123.941V163.952H120.743V161.896H124.122V160.954H119.649V168ZM125.118 168H126.173V165.007C126.173 164.206 126.651 163.669 127.394 163.669C128.126 163.669 128.487 164.104 128.487 164.875V168H129.547V164.675C129.547 163.493 128.897 162.766 127.77 162.766C126.993 162.766 126.466 163.117 126.197 163.64H126.173V162.863H125.118V168ZM132.369 168.103C132.584 168.103 132.784 168.078 132.906 168.059V167.243C132.828 167.253 132.735 167.263 132.623 167.263C132.179 167.263 131.944 167.106 131.944 166.584V163.703H132.906V162.863H131.944V161.525H130.865V162.863H130.128V163.703H130.865V166.647C130.865 167.673 131.354 168.103 132.369 168.103ZM133.78 168H134.835V164.938C134.835 164.172 135.255 163.728 135.934 163.728C136.139 163.728 136.324 163.752 136.407 163.786V162.805C136.324 162.79 136.192 162.766 136.041 162.766C135.455 162.766 135.025 163.142 134.859 163.742H134.835V162.863H133.78V168ZM138.463 168.093C139.142 168.093 139.737 167.741 140.035 167.189H140.055V168H141.114V164.46C141.114 163.43 140.318 162.766 139.063 162.766C137.799 162.766 137.032 163.444 136.959 164.328L136.954 164.382H137.95L137.96 164.338C138.048 163.928 138.424 163.64 139.034 163.64C139.688 163.64 140.055 163.981 140.055 164.548V164.934L138.658 165.017C137.442 165.09 136.749 165.637 136.749 166.53V166.54C136.749 167.463 137.438 168.093 138.463 168.093ZM137.813 166.516V166.506C137.813 166.071 138.165 165.793 138.8 165.754L140.055 165.676V166.076C140.055 166.745 139.493 167.248 138.751 167.248C138.185 167.248 137.813 166.965 137.813 166.516ZM142.14 168H143.194V164.938C143.194 164.172 143.614 163.728 144.293 163.728C144.498 163.728 144.684 163.752 144.767 163.786V162.805C144.684 162.79 144.552 162.766 144.4 162.766C143.814 162.766 143.385 163.142 143.219 163.742H143.194V162.863H142.14V168ZM147.452 168H148.507V165.007C148.507 164.206 148.985 163.669 149.728 163.669C150.46 163.669 150.821 164.104 150.821 164.875V168H151.881V164.675C151.881 163.493 151.231 162.766 150.104 162.766C149.327 162.766 148.8 163.117 148.531 163.64H148.507V162.863H147.452V168ZM154.41 168.093C155.089 168.093 155.685 167.741 155.982 167.189H156.002V168H157.062V164.46C157.062 163.43 156.266 162.766 155.011 162.766C153.746 162.766 152.979 163.444 152.906 164.328L152.901 164.382H153.897L153.907 164.338C153.995 163.928 154.371 163.64 154.981 163.64C155.636 163.64 156.002 163.981 156.002 164.548V164.934L154.605 165.017C153.39 165.09 152.696 165.637 152.696 166.53V166.54C152.696 167.463 153.385 168.093 154.41 168.093ZM153.761 166.516V166.506C153.761 166.071 154.112 165.793 154.747 165.754L156.002 165.676V166.076C156.002 166.745 155.44 167.248 154.698 167.248C154.132 167.248 153.761 166.965 153.761 166.516ZM162.325 168.103C163.561 168.103 164.42 167.312 164.532 166.281L164.537 166.247H163.521L163.517 166.286C163.39 166.843 162.975 167.219 162.325 167.219C161.51 167.219 160.968 166.56 160.968 165.437V165.432C160.968 164.333 161.5 163.649 162.32 163.649C163.009 163.649 163.399 164.074 163.512 164.577L163.521 164.616H164.527L164.522 164.582C164.435 163.615 163.634 162.766 162.311 162.766C160.846 162.766 159.889 163.796 159.889 165.422V165.427C159.889 167.072 160.826 168.103 162.325 168.103ZM167.491 168.103C168.961 168.103 169.928 167.087 169.928 165.432V165.422C169.928 163.776 168.951 162.766 167.486 162.766C166.026 162.766 165.055 163.781 165.055 165.422V165.432C165.055 167.082 166.017 168.103 167.491 168.103ZM167.496 167.219C166.671 167.219 166.134 166.569 166.134 165.432V165.422C166.134 164.299 166.676 163.649 167.486 163.649C168.312 163.649 168.849 164.299 168.849 165.422V165.432C168.849 166.564 168.321 167.219 167.496 167.219ZM170.743 168H171.798V165.007C171.798 164.206 172.276 163.669 173.019 163.669C173.751 163.669 174.112 164.104 174.112 164.875V168H175.172V164.675C175.172 163.493 174.522 162.766 173.395 162.766C172.618 162.766 172.091 163.117 171.822 163.64H171.798V162.863H170.743V168ZM177.994 168.103C178.209 168.103 178.409 168.078 178.531 168.059V167.243C178.453 167.253 178.36 167.263 178.248 167.263C177.804 167.263 177.569 167.106 177.569 166.584V163.703H178.531V162.863H177.569V161.525H176.49V162.863H175.753V163.703H176.49V166.647C176.49 167.673 176.979 168.103 177.994 168.103ZM180.836 168.093C181.515 168.093 182.11 167.741 182.408 167.189H182.428V168H183.487V164.46C183.487 163.43 182.691 162.766 181.437 162.766C180.172 162.766 179.405 163.444 179.332 164.328L179.327 164.382H180.323L180.333 164.338C180.421 163.928 180.797 163.64 181.407 163.64C182.062 163.64 182.428 163.981 182.428 164.548V164.934L181.031 165.017C179.815 165.09 179.122 165.637 179.122 166.53V166.54C179.122 167.463 179.811 168.093 180.836 168.093ZM180.187 166.516V166.506C180.187 166.071 180.538 165.793 181.173 165.754L182.428 165.676V166.076C182.428 166.745 181.866 167.248 181.124 167.248C180.558 167.248 180.187 166.965 180.187 166.516Z" fill="white"/>
<path d="M51.9092 15H55.8672C57.9658 15 59.2305 13.9473 59.2305 12.2178V12.2041C59.2305 10.9053 58.3213 9.94141 56.9199 9.79785V9.77051C57.959 9.62012 58.7451 8.65625 58.7451 7.61719V7.60352C58.7451 6.11328 57.5967 5.13574 55.8467 5.13574H51.9092V15ZM55.4775 6.38672C56.585 6.38672 57.2207 6.88574 57.2207 7.78809V7.80176C57.2207 8.79297 56.4893 9.33984 55.1357 9.33984H53.4404V6.38672H55.4775ZM55.4502 10.5225C56.9131 10.5225 57.665 11.0693 57.665 12.1289V12.1426C57.665 13.1953 56.9268 13.749 55.5527 13.749H53.4404V10.5225H55.4502ZM63.4414 15.1436C65.1846 15.1436 66.292 14.1045 66.5244 12.9629L66.5381 12.8877H65.1367L65.1162 12.9424C64.9316 13.4824 64.3506 13.9336 63.4756 13.9336C62.2998 13.9336 61.5547 13.1406 61.5273 11.7803H66.6201V11.2812C66.6201 9.12109 65.3828 7.67188 63.3662 7.67188C61.3496 7.67188 60.0508 9.17578 60.0508 11.4248V11.4316C60.0508 13.7012 61.3291 15.1436 63.4414 15.1436ZM63.373 8.88184C64.3369 8.88184 65.0342 9.49023 65.1572 10.7344H61.5479C61.6777 9.53125 62.416 8.88184 63.373 8.88184ZM67.7686 15H69.2451V10.5566C69.2451 9.62695 69.8672 8.93652 70.7422 8.93652C71.5762 8.93652 72.1025 9.46973 72.1025 10.3037V15H73.5518V10.502C73.5518 9.59277 74.1602 8.93652 75.0352 8.93652C75.9102 8.93652 76.4092 9.47656 76.4092 10.4131V15H77.8926V10.0576C77.8926 8.61523 76.9629 7.67188 75.541 7.67188C74.5156 7.67188 73.668 8.21191 73.2988 9.08691H73.2646C72.9775 8.18457 72.2529 7.67188 71.2617 7.67188C70.3184 7.67188 69.5869 8.1709 69.2793 8.92285H69.2451V7.80859H67.7686V15ZM79.4238 11.6641H83.8193V10.3311H79.4238V11.6641ZM87.3262 15H88.9121L91.4893 7.80859H89.9512L88.1465 13.5576H88.1123L86.3076 7.80859H84.7354L87.3262 15ZM93.1367 6.70117C93.6221 6.70117 93.998 6.31836 93.998 5.85352C93.998 5.38184 93.6221 4.99902 93.1367 4.99902C92.6582 4.99902 92.2754 5.38184 92.2754 5.85352C92.2754 6.31836 92.6582 6.70117 93.1367 6.70117ZM92.3984 15H93.875V7.80859H92.3984V15ZM95.3994 15H96.876V10.8096C96.876 9.68848 97.5459 8.93652 98.585 8.93652C99.6104 8.93652 100.116 9.54492 100.116 10.625V15H101.6V10.3447C101.6 8.69043 100.69 7.67188 99.1113 7.67188C98.0244 7.67188 97.2861 8.16406 96.9102 8.89551H96.876V7.80859H95.3994V15ZM105.715 15.1436C106.747 15.1436 107.54 14.624 107.971 13.7832H107.998V15H109.481V5.13574H107.998V9.03223H107.971C107.54 8.18457 106.72 7.67188 105.701 7.67188C103.896 7.67188 102.707 9.10742 102.707 11.3975V11.4043C102.707 13.6943 103.883 15.1436 105.715 15.1436ZM106.104 13.8721C104.936 13.8721 104.218 12.9355 104.218 11.4043V11.3975C104.218 9.87988 104.942 8.93652 106.104 8.93652C107.212 8.93652 108.005 9.90723 108.005 11.3975V11.4043C108.005 12.9014 107.219 13.8721 106.104 13.8721ZM114.089 15.1436C116.146 15.1436 117.5 13.7217 117.5 11.4043V11.3906C117.5 9.08691 116.133 7.67188 114.082 7.67188C112.038 7.67188 110.678 9.09375 110.678 11.3906V11.4043C110.678 13.7148 112.024 15.1436 114.089 15.1436ZM114.096 13.9062C112.94 13.9062 112.188 12.9971 112.188 11.4043V11.3906C112.188 9.81836 112.947 8.90918 114.082 8.90918C115.237 8.90918 115.989 9.81836 115.989 11.3906V11.4043C115.989 12.9902 115.251 13.9062 114.096 13.9062ZM119.25 11.7119H120.556L120.665 5.13574H119.141L119.25 11.7119ZM119.899 15.0752C120.412 15.0752 120.802 14.6855 120.802 14.1865C120.802 13.6875 120.412 13.3047 119.899 13.3047C119.4 13.3047 119.004 13.6875 119.004 14.1865C119.004 14.6855 119.4 15.0752 119.899 15.0752Z" fill="#494949"/>
<path opacity="0.2" d="M51 40C51 37.7909 52.7909 36 55 36H59V68H55C52.7909 68 51 66.2091 51 64V40Z" fill="#3E68FF"/>
<path opacity="0.2" d="M251 40C251 37.7909 249.209 36 247 36H243V68H247C249.209 68 251 66.2091 251 64V40Z" fill="#3E68FF"/>
<rect opacity="0.2" width="184" height="8" transform="matrix(-1 0 0 1 243 36)" fill="#3E68FF"/>
<rect opacity="0.2" width="184" height="8" transform="matrix(-1 0 0 1 243 60)" fill="#3E68FF"/>
<path d="M9.08594 55.1172C10.6484 55.1172 11.7471 54.2822 11.7471 53.0908V53.0811C11.7471 52.1924 11.1123 51.4893 10.1943 51.2891V51.2646C10.9805 51.04 11.4932 50.4541 11.4932 49.707V49.6973C11.4932 48.623 10.4873 47.8369 9.08594 47.8369C7.68457 47.8369 6.68359 48.623 6.68359 49.6973V49.707C6.68359 50.4541 7.19629 51.04 7.98242 51.2646V51.2891C7.06445 51.4893 6.4248 52.1924 6.4248 53.0811V53.0908C6.4248 54.2822 7.52832 55.1172 9.08594 55.1172ZM9.08594 50.8984C8.30469 50.8984 7.76758 50.4443 7.76758 49.8047V49.7949C7.76758 49.1504 8.30469 48.7012 9.08594 48.7012C9.86719 48.7012 10.4092 49.1504 10.4092 49.7949V49.8047C10.4092 50.4443 9.87207 50.8984 9.08594 50.8984ZM9.08594 54.2432C8.1875 54.2432 7.54785 53.7305 7.54785 53.0176V53.0078C7.54785 52.29 8.18262 51.7725 9.08594 51.7725C9.98926 51.7725 10.624 52.29 10.624 53.0078V53.0176C10.624 53.7305 9.98438 54.2432 9.08594 54.2432ZM14.8525 55H15.9463V52.5928H17.4746C18.8564 52.5928 19.8135 51.6504 19.8135 50.2734V50.2637C19.8135 48.8818 18.8564 47.9541 17.4746 47.9541H14.8525V55ZM17.2012 48.877C18.1533 48.877 18.7002 49.3896 18.7002 50.2686V50.2783C18.7002 51.1621 18.1533 51.6748 17.2012 51.6748H15.9463V48.877H17.2012ZM20.2773 55H21.4883L23.2559 52.3096H23.2949L25.0527 55H26.332L23.9883 51.4941V51.4746L26.376 47.9541H25.1406L23.3926 50.6836H23.3486L21.6055 47.9541H20.3018L22.6211 51.4404V51.4551L20.2773 55Z" fill="#3E68FF"/>
<rect opacity="0.2" x="31" y="51" width="16" height="1" fill="#3E68FF"/>
<path d="M4.03613 81H5.10547V73.9541H4.02637L2.1709 75.2725V76.3076L4.01172 75.0381H4.03613V81ZM9.47559 81.1172C10.96 81.1172 12.0488 80.1064 12.0488 78.7002V78.6904C12.0488 77.3574 11.0771 76.376 9.72949 76.376C8.77246 76.376 8.05957 76.874 7.78125 77.5088H7.75684C7.75684 77.4453 7.75684 77.3818 7.76172 77.3184C7.80566 75.9219 8.29883 74.7549 9.50977 74.7549C10.1836 74.7549 10.6426 75.0869 10.8428 75.6143L10.8574 75.6631H11.9561L11.9414 75.6045C11.7168 74.5547 10.7744 73.8369 9.51953 73.8369C7.75684 73.8369 6.70703 75.2236 6.70703 77.5723V77.582C6.70703 80.1162 8.03516 81.1172 9.47559 81.1172ZM7.97168 78.7051V78.7002C7.97168 77.8652 8.62109 77.2646 9.47559 77.2646C10.335 77.2646 10.96 77.8701 10.96 78.7197V78.7295C10.96 79.5498 10.2959 80.1992 9.46094 80.1992C8.62598 80.1992 7.97168 79.54 7.97168 78.7051ZM15.2568 81H16.3506V78.5928H17.8789C19.2607 78.5928 20.2178 77.6504 20.2178 76.2734V76.2637C20.2178 74.8818 19.2607 73.9541 17.8789 73.9541H15.2568V81ZM17.6055 74.877C18.5576 74.877 19.1045 75.3896 19.1045 76.2686V76.2783C19.1045 77.1621 18.5576 77.6748 17.6055 77.6748H16.3506V74.877H17.6055ZM20.6816 81H21.8926L23.6602 78.3096H23.6992L25.457 81H26.7363L24.3926 77.4941V77.4746L26.7803 73.9541H25.5449L23.7969 76.6836H23.7529L22.0098 73.9541H20.7061L23.0254 77.4404V77.4551L20.6816 81Z" fill="#3E68FF"/>
<rect opacity="0.2" x="31" y="77" width="16" height="1" fill="#3E68FF"/>
<path d="M1.33594 29H6.15527V28.0771H2.80078V28.0332L4.40234 26.4609C5.66699 25.2109 6.04297 24.6396 6.04297 23.834V23.8242C6.04297 22.6865 5.07617 21.8369 3.72363 21.8369C2.34668 21.8369 1.27734 22.75 1.27734 24.0098V24.0391H2.3125V24.0098C2.32227 23.2969 2.91309 22.7402 3.73828 22.7402C4.45117 22.7402 4.95898 23.2188 4.96387 23.8877V23.8975C4.96387 24.4443 4.75391 24.8154 3.81641 25.7529L1.33594 28.248V29ZM10.2715 29H11.3213V27.5986H12.293V26.6807H11.3213V21.9541H9.73926L6.74609 26.6465V27.5986H10.2715V29ZM7.76172 26.6953V26.666L10.252 22.8184H10.2812V26.6953H7.76172ZM15.2568 29H16.3506V26.5928H17.8789C19.2607 26.5928 20.2178 25.6504 20.2178 24.2734V24.2637C20.2178 22.8818 19.2607 21.9541 17.8789 21.9541H15.2568V29ZM17.6055 22.877C18.5576 22.877 19.1045 23.3896 19.1045 24.2686V24.2783C19.1045 25.1621 18.5576 25.6748 17.6055 25.6748H16.3506V22.877H17.6055ZM20.6816 29H21.8926L23.6602 26.3096H23.6992L25.457 29H26.7363L24.3926 25.4941V25.4746L26.7803 21.9541H25.5449L23.7969 24.6836H23.7529L22.0098 21.9541H20.7061L23.0254 25.4404V25.4551L20.6816 29Z" fill="#3E68FF"/>
<rect opacity="0.2" x="31" y="25" width="16" height="1" fill="#3E68FF"/>
<path d="M3.73828 137.117C5.23242 137.117 6.29199 136.258 6.29199 135.052V135.042C6.29199 134.056 5.59863 133.431 4.56348 133.338V133.313C5.42285 133.133 6.04785 132.547 6.04785 131.673V131.663C6.04785 130.579 5.12988 129.837 3.72852 129.837C2.35156 129.837 1.41406 130.613 1.30664 131.79L1.30176 131.839H2.32715L2.33203 131.795C2.40039 131.141 2.94727 130.73 3.72852 130.73C4.52441 130.73 4.9834 131.126 4.9834 131.805V131.814C4.9834 132.469 4.43652 132.942 3.63086 132.942H2.80566V133.792H3.66016C4.60254 133.792 5.17871 134.236 5.17871 135.032V135.042C5.17871 135.726 4.59766 136.204 3.73828 136.204C2.86426 136.204 2.27344 135.765 2.20508 135.14L2.2002 135.086H1.15039L1.15527 135.149C1.25293 136.297 2.23438 137.117 3.73828 137.117ZM7.33203 137H12.1514V136.077H8.79688V136.033L10.3984 134.461C11.6631 133.211 12.0391 132.64 12.0391 131.834V131.824C12.0391 130.687 11.0723 129.837 9.71973 129.837C8.34277 129.837 7.27344 130.75 7.27344 132.01V132.039H8.30859V132.01C8.31836 131.297 8.90918 130.74 9.73438 130.74C10.4473 130.74 10.9551 131.219 10.96 131.888V131.897C10.96 132.444 10.75 132.815 9.8125 133.753L7.33203 136.248V137ZM15.2568 137H16.3506V134.593H17.8789C19.2607 134.593 20.2178 133.65 20.2178 132.273V132.264C20.2178 130.882 19.2607 129.954 17.8789 129.954H15.2568V137ZM17.6055 130.877C18.5576 130.877 19.1045 131.39 19.1045 132.269V132.278C19.1045 133.162 18.5576 133.675 17.6055 133.675H16.3506V130.877H17.6055ZM20.6816 137H21.8926L23.6602 134.31H23.6992L25.457 137H26.7363L24.3926 133.494V133.475L26.7803 129.954H25.5449L23.7969 132.684H23.7529L22.0098 129.954H20.7061L23.0254 133.44V133.455L20.6816 137Z" fill="#3E68FF"/>
<rect opacity="0.2" x="31" y="133" width="16" height="1" fill="#3E68FF"/>
<rect opacity="0.2" x="57" y="68" width="3" height="16" fill="#3E68FF"/>
<rect opacity="0.2" x="57" y="20" width="3" height="16" fill="#3E68FF"/>
<rect opacity="0.2" x="57" y="116" width="3" height="32" fill="#3E68FF"/>
</svg>
