<svg width="24" height="24" viewBox="0 0 24 24" fill="none" xmlns="http://www.w3.org/2000/svg">
<path d="M6.96598 4.85902C6.69998 4.85902 6.49098 4.89702 6.33898 4.97302C6.19965 5.04902 6.09831 5.22002 6.03498 5.48602C5.98431 5.75202 5.95898 6.17635 5.95898 6.75902V8.62102C5.95898 9.10235 5.88298 9.52035 5.73098 9.87502C5.59165 10.217 5.42698 10.4957 5.23698 10.711C5.04698 10.9263 4.86965 11.091 4.70498 11.205C4.84431 11.3063 5.00898 11.4647 5.19898 11.68C5.40165 11.8827 5.57898 12.136 5.73098 12.44C5.88298 12.7313 5.95898 13.0607 5.95898 13.428V15.708C5.95898 16.278 5.98431 16.696 6.03498 16.962C6.09831 17.228 6.19965 17.399 6.33898 17.475C6.49098 17.551 6.69998 17.589 6.96598 17.589H7.66898V19.907H6.16798C5.81331 19.907 5.45865 19.9007 5.10398 19.888C4.76198 19.8753 4.44531 19.8057 4.15398 19.679C3.86265 19.565 3.62831 19.3433 3.45098 19.014C3.28631 18.6973 3.20398 18.235 3.20398 17.627V14.492C3.20398 14.112 3.14698 13.7573 3.03298 13.428C2.91898 13.086 2.74798 12.8073 2.51998 12.592C2.29198 12.3767 2.00698 12.269 1.66498 12.269V10.065C2.00698 10.0523 2.29198 9.94469 2.51998 9.74202C2.74798 9.52669 2.91898 9.25435 3.03298 8.92502C3.14698 8.58302 3.20398 8.22202 3.20398 7.84202V4.84002C3.20398 4.23202 3.28631 3.76969 3.45098 3.45302C3.61565 3.13635 3.83731 2.91469 4.11598 2.78802C4.40731 2.66135 4.73031 2.59169 5.08498 2.57902C5.43965 2.55369 5.80065 2.54102 6.16798 2.54102H7.66898V4.85902H6.96598ZM21.1317 11.376C21.1317 12.668 20.9734 13.8777 20.6567 15.005C20.3527 16.1323 19.96 17.133 19.4787 18.007C18.9974 18.8937 18.4844 19.622 17.9397 20.192L15.7547 19.185C16.2487 18.615 16.692 17.9437 17.0847 17.171C17.4774 16.411 17.7877 15.5497 18.0157 14.587C18.2437 13.6117 18.3577 12.5413 18.3577 11.376C18.3577 10.2107 18.2437 9.14669 18.0157 8.18402C17.7877 7.20869 17.4774 6.34102 17.0847 5.58102C16.692 4.80835 16.2487 4.14335 15.7547 3.58602L17.9397 2.56002C18.4844 3.13002 18.9974 3.85835 19.4787 4.74502C19.96 5.63169 20.3527 6.63869 20.6567 7.76602C20.9734 8.88069 21.1317 10.084 21.1317 11.376Z" fill="#986dff"/>
</svg>
